<?xml version="1.0" encoding="UTF-8"?>
<svg width="414px" height="292px" viewBox="0 0 414 292" version="1.1" xmlns="http://www.w3.org/2000/svg" xmlns:xlink="http://www.w3.org/1999/xlink">
    <!-- Generator: Sketch 41.2 (35397) - http://www.bohemiancoding.com/sketch -->
    <title>Quote Runner - Sprite Sheet</title>
    <desc>Created with Sketch.</desc>
    <defs>
        <polygon id="path-1" points="80.0451369 38.6704154 80.0451369 0.0272762592 2.11275865e-05 0.0272762592 2.11275865e-05 38.6704154"></polygon>
        <polygon id="path-3" points="33.6653187 162.327622 192.43181 162.327622 175.66781 203.327622 16 203.327622"></polygon>
        <filter x="-50%" y="-50%" width="200%" height="200%" filterUnits="objectBoundingBox" id="filter-4">
            <feGaussianBlur stdDeviation="1.5" in="SourceAlpha" result="shadowBlurInner1"></feGaussianBlur>
            <feOffset dx="0" dy="1" in="shadowBlurInner1" result="shadowOffsetInner1"></feOffset>
            <feComposite in="shadowOffsetInner1" in2="SourceAlpha" operator="arithmetic" k2="-1" k3="1" result="shadowInnerInner1"></feComposite>
            <feColorMatrix values="0 0 0 0 0   0 0 0 0 0   0 0 0 0 0  0 0 0 0.1 0" type="matrix" in="shadowInnerInner1"></feColorMatrix>
        </filter>
        <polygon id="path-5" points="37.3887644 87 211.64467 87 193.245158 132 18 132"></polygon>
        <filter x="-50%" y="-50%" width="200%" height="200%" filterUnits="objectBoundingBox" id="filter-6">
            <feOffset dx="1" dy="-1" in="SourceAlpha" result="shadowOffsetOuter1"></feOffset>
            <feGaussianBlur stdDeviation="5" in="shadowOffsetOuter1" result="shadowBlurOuter1"></feGaussianBlur>
            <feComposite in="shadowBlurOuter1" in2="SourceAlpha" operator="out" result="shadowBlurOuter1"></feComposite>
            <feColorMatrix values="0 0 0 0 0   0 0 0 0 0   0 0 0 0 0  0 0 0 0.1 0" type="matrix" in="shadowBlurOuter1"></feColorMatrix>
        </filter>
        <mask id="mask-7" maskContentUnits="userSpaceOnUse" maskUnits="objectBoundingBox" x="0" y="0" width="193.64467" height="45" fill="white">
            <use xlink:href="#path-5"></use>
        </mask>
    </defs>
    <g id="Page-1" stroke="none" stroke-width="1" fill="none" fill-rule="evenodd">
        <g id="Quote-Runner---Sprite-Sheet">
            <g id="info-icon" transform="translate(32.000000, 39.000000)" fill="#001D38">
                <g id="Group">
                    <g transform="translate(0.000000, 0.141738)" id="Shape">
                        <path d="M10,3.41381778 C9.07952533,3.41381778 8.33333333,4.16000978 8.33333333,5.08048444 C8.33333333,6.00095911 9.07952533,6.74715111 10,6.74715111 C10.9204747,6.74715111 11.6666667,6.00095911 11.6666667,5.08048444 C11.6666667,4.16000978 10.9204747,3.41381778 10,3.41381778 L10,3.41381778 Z M8.88888889,16.7471511 L11.1111111,16.7471511 L11.1111111,7.85826222 L8.88888889,7.85826222 L8.88888889,16.7471511 Z"></path>
                        <path d="M10,0.0804777778 C4.48373289,0.0804777778 0,4.56421111 0,10.0804667 C0,15.5967556 4.48373289,20.0804889 10,20.0804889 C15.5162671,20.0804889 20,15.5967556 20,10.0804667 C20,4.56421111 15.5162671,0.0804777778 10,0.0804777778 L10,0.0804777778 Z M10,1.19158889 C14.9157782,1.19158889 18.8888889,5.1647 18.8888889,10.0804667 C18.8888889,14.9962667 14.9157782,18.9693778 10,18.9693778 C5.08422178,18.9693778 1.11111111,14.9962667 1.11111111,10.0804667 C1.11111111,5.1647 5.08422178,1.19158889 10,1.19158889 L10,1.19158889 Z"></path>
                    </g>
                </g>
            </g>
            <path d="M248,108.76 C248,109.33 248.45,109.81 249.05,109.81 C249.47,109.81 249.77,109.57 250.04,109.24 L254.72,103.3 L259.43,109.27 C259.7,109.6 260,109.81 260.45,109.81 C261.05,109.81 261.53,109.36 261.53,108.73 C261.53,108.43 261.41,108.16 261.2,107.89 L256.16,101.71 L260.99,95.8 C261.17,95.59 261.29,95.35 261.29,95.05 C261.29,94.45 260.84,94 260.24,94 C259.82,94 259.52,94.24 259.25,94.57 L254.81,100.21 L250.34,94.54 C250.07,94.21 249.77,94 249.32,94 C248.72,94 248.24,94.42 248.24,95.08 C248.24,95.38 248.36,95.65 248.6,95.92 L253.37,101.77 L248.3,108.01 C248.09,108.22 248,108.46 248,108.76 L248,108.76 Z" id="x" fill="#001D38"></path>
            <path d="M84.8973214,47.0870536 C84.8973214,46.8995526 84.8370542,46.7455363 84.7165179,46.625 L83.8024554,45.7209821 C83.6752226,45.5937494 83.5245544,45.5301339 83.3504464,45.5301339 C83.1763384,45.5301339 83.0256703,45.5937494 82.8984375,45.7209821 L78.8002232,49.8091518 L76.5301339,47.5390625 C76.4029011,47.4118297 76.252233,47.3482143 76.078125,47.3482143 C75.904017,47.3482143 75.7533489,47.4118297 75.6261161,47.5390625 L74.7120536,48.4430804 C74.5915173,48.5636167 74.53125,48.717633 74.53125,48.9051339 C74.53125,49.0859384 74.5915173,49.2366065 74.7120536,49.3571429 L78.3482143,52.9933036 C78.4754471,53.1205364 78.6261152,53.1841518 78.8002232,53.1841518 C78.9810277,53.1841518 79.135044,53.1205364 79.2622768,52.9933036 L84.7165179,47.5390625 C84.8370542,47.4185262 84.8973214,47.267858 84.8973214,47.0870536 Z M87.4285714,48.7142857 C87.4285714,50.1138463 87.0837088,51.40457 86.3939732,52.5864955 C85.7042376,53.7684211 84.7684211,54.7042376 83.5864955,55.3939732 C82.40457,56.0837088 81.1138463,56.4285714 79.7142857,56.4285714 C78.3147251,56.4285714 77.0240014,56.0837088 75.8420759,55.3939732 C74.6601503,54.7042376 73.7243338,53.7684211 73.0345982,52.5864955 C72.3448626,51.40457 72,50.1138463 72,48.7142857 C72,47.3147251 72.3448626,46.0240014 73.0345982,44.8420759 C73.7243338,43.6601503 74.6601503,42.7243338 75.8420759,42.0345982 C77.0240014,41.3448626 78.3147251,41 79.7142857,41 C81.1138463,41 82.40457,41.3448626 83.5864955,42.0345982 C84.7684211,42.7243338 85.7042376,43.6601503 86.3939732,44.8420759 C87.0837088,46.0240014 87.4285714,47.3147251 87.4285714,48.7142857 Z" id="check-mark-icon" fill="#FFFFFF"></path>
            <polyline id="back-arrow-icon-disabled" stroke="#DADADA" stroke-width="3" transform="translate(115.680000, 49.336189) scale(-1, 1) translate(-115.680000, -49.336189) " points="112.047892 42 119.36 49.3123774 112 56.6723775"></polyline>
            <polyline id="back-arrow-icon" stroke="#484848" stroke-width="3" transform="translate(177.320000, 49.336189) scale(-1, 1) translate(-177.320000, -49.336189) " points="173.687892 42 181 49.3123774 173.64 56.6723775"></polyline>
            <path d="M225.390703,48.9040236 C225.390703,48.7529638 225.342149,48.6288808 225.245039,48.5317709 L224.508627,47.8034506 C224.406122,47.7009458 224.284736,47.6496941 224.144466,47.6496941 C224.004197,47.6496941 223.882811,47.7009458 223.780306,47.8034506 L220.478587,51.097077 L218.649694,49.2681837 C218.547189,49.1656789 218.425804,49.1144272 218.285534,49.1144272 C218.145264,49.1144272 218.023879,49.1656789 217.921374,49.2681837 L217.184961,49.9965041 C217.087851,50.0936139 217.039297,50.2176969 217.039297,50.3687567 C217.039297,50.5144215 217.087851,50.635807 217.184961,50.7329168 L220.114427,53.662383 C220.216932,53.7648879 220.338318,53.8161396 220.478587,53.8161396 C220.624252,53.8161396 220.748335,53.7648879 220.85084,53.662383 L225.245039,49.2681837 C225.342149,49.1710739 225.390703,49.0496884 225.390703,48.9040236 Z M227.43,50.2150002 C227.43,51.3425536 227.152162,52.3824227 226.596478,53.3346389 C226.040794,54.2868551 225.286855,55.0407939 224.334639,55.5964781 C223.382423,56.1521624 222.342554,56.4300003 221.215,56.4300003 C220.087447,56.4300003 219.047578,56.1521624 218.095361,55.5964781 C217.143145,55.0407939 216.389206,54.2868551 215.833522,53.3346389 C215.277838,52.3824227 215,51.3425536 215,50.2150002 C215,49.0874467 215.277838,48.0475776 215.833522,47.0953614 C216.389206,46.1431452 217.143145,45.3892064 218.095361,44.8335222 C219.047578,44.2778379 220.087447,44 221.215,44 C222.342554,44 223.382423,44.2778379 224.334639,44.8335222 C225.286855,45.3892064 226.040794,46.1431452 226.596478,47.0953614 C227.152162,48.0475776 227.43,49.0874467 227.43,50.2150002 Z" id="check-mark-icon" fill="#3AAE30"></path>
            <path d="M254.287143,43 C255.531197,43 256.678507,43.3065446 257.729107,43.9196429 C258.779708,44.5327412 259.611545,45.3645781 260.224643,46.4151786 C260.837741,47.4657791 261.144286,48.613089 261.144286,49.8571429 C261.144286,51.1011967 260.837741,52.2485067 260.224643,53.2991071 C259.611545,54.3497076 258.779708,55.1815446 257.729107,55.7946429 C256.678507,56.4077412 255.531197,56.7142857 254.287143,56.7142857 C253.043089,56.7142857 251.895779,56.4077412 250.845179,55.7946429 C249.794578,55.1815446 248.962741,54.3497076 248.349643,53.2991071 C247.736545,52.2485067 247.43,51.1011967 247.43,49.8571429 C247.43,48.613089 247.736545,47.4657791 248.349643,46.4151786 C248.962741,45.3645781 249.794578,44.5327412 250.845179,43.9196429 C251.895779,43.3065446 253.043089,43 254.287143,43 Z M255.43,54.1339286 L255.43,52.4375 C255.43,52.3541662 255.403215,52.2842265 255.349643,52.2276786 C255.296071,52.1711307 255.230596,52.1428571 255.153215,52.1428571 L253.438929,52.1428571 C253.361548,52.1428571 253.293096,52.1726187 253.233572,52.2321429 C253.174048,52.291667 253.144286,52.3601187 253.144286,52.4375 L253.144286,54.1339286 C253.144286,54.2113099 253.174048,54.2797616 253.233572,54.3392857 C253.293096,54.3988098 253.361548,54.4285714 253.438929,54.4285714 L255.153215,54.4285714 C255.230596,54.4285714 255.296071,54.4002979 255.349643,54.34375 C255.403215,54.2872021 255.43,54.2172623 255.43,54.1339286 Z M255.412143,51.0625 L255.572857,45.5178571 C255.572857,45.4464282 255.543096,45.3928573 255.483572,45.3571429 C255.424048,45.3095236 255.35262,45.2857143 255.269286,45.2857143 L253.305,45.2857143 C253.221667,45.2857143 253.150239,45.3095236 253.090715,45.3571429 C253.03119,45.3928573 253.001429,45.4464282 253.001429,45.5178571 L253.153215,51.0625 C253.153215,51.1220241 253.182976,51.1741069 253.2425,51.21875 C253.302024,51.2633931 253.373452,51.2857143 253.456786,51.2857143 L255.108572,51.2857143 C255.191905,51.2857143 255.261845,51.2633931 255.318393,51.21875 C255.374941,51.1741069 255.406191,51.1220241 255.412143,51.0625 Z" id="error-icon" fill="#E65D60"></path>
            <g id="iMover-Logo" transform="translate(308.000000, 38.000000)">
                <path d="M0.33272863,93.7718447 L0.33272863,78.8359138 L3.55717154,78.8359138 L3.55717154,93.7718447 L0.33272863,93.7718447 Z M3.2953578,73.1630006 C3.65363102,73.5284075 3.83276495,73.9988618 3.83276495,74.5743776 C3.83276495,75.131623 3.65363102,75.5929423 3.2953578,75.9583491 C2.93708457,76.323756 2.48235999,76.5064567 1.93117041,76.5064567 C1.38916733,76.5064567 0.939035926,76.3260398 0.5807627,75.9652005 C0.222489475,75.6043612 0.0433555488,75.1407582 0.0433555488,74.5743776 C0.0433555488,73.9988618 0.222489475,73.5284075 0.5807627,73.1630006 C0.939035926,72.7975937 1.38916733,72.6148931 1.93117041,72.6148931 C2.48235999,72.6148931 2.93708457,72.7975937 3.2953578,73.1630006 L3.2953578,73.1630006 Z M25.493572,93.7718447 L25.4660127,79.0962649 L19.2238219,91.7164413 L17.046634,91.7164413 L10.8182229,79.0962649 L10.8182229,93.7718447 L7.67645801,93.7718447 L7.67645801,74.1221888 L11.6312235,74.1221888 L18.1490076,87.1808513 L24.6392325,74.1221888 L28.5664386,74.1221888 L28.5664386,93.7718447 L25.493572,93.7718447 Z M43.227173,79.6854805 C44.4122306,80.3249425 45.3331627,81.2133246 45.9899969,82.3506535 C46.6468312,83.4879824 46.9752434,84.8057111 46.9752434,86.3038792 C46.9752434,87.783777 46.6468312,89.099222 45.9899969,90.2502536 C45.3331627,91.4012852 44.4122306,92.2942349 43.227173,92.9291293 C42.0421154,93.5640237 40.687128,93.8814662 39.1621702,93.8814662 C37.6188394,93.8814662 36.2546656,93.5640237 35.069608,92.9291293 C33.8845504,92.2942349 32.9636183,91.4012852 32.3067841,90.2502536 C31.6499498,89.099222 31.3215376,87.783777 31.3215376,86.3038792 C31.3215376,84.8057111 31.6499498,83.4879824 32.3067841,82.3506535 C32.9636183,81.2133246 33.8845504,80.3249425 35.069608,79.6854805 C36.2546656,79.0460185 37.6188394,78.7262923 39.1621702,78.7262923 C40.687128,78.7262923 42.0421154,79.0460185 43.227173,79.6854805 L43.227173,79.6854805 Z M35.8481594,82.857653 C34.9892223,83.7574674 34.5597602,84.915333 34.5597602,86.3312846 C34.5597602,87.7746417 34.9892223,88.9462099 35.8481594,89.8460243 C36.7070965,90.7458387 37.8117557,91.1957392 39.1621702,91.1957392 C40.5125846,91.1957392 41.6126507,90.7458387 42.4624013,89.8460243 C43.3121519,88.9462099 43.7370208,87.7746417 43.7370208,86.3312846 C43.7370208,84.9061978 43.3075587,83.7460484 42.4486216,82.8508016 C41.5896845,81.9555548 40.4942117,81.5079381 39.1621702,81.5079381 C37.8117557,81.5079381 36.7070965,81.9578386 35.8481594,82.857653 L35.8481594,82.857653 Z M53.9333048,93.7718447 L48.1182839,78.8359138 L51.5080828,78.8359138 L55.683323,90.6065235 L59.8034445,78.8359138 L63.0416671,78.8359138 L57.2955444,93.7718447 L53.9333048,93.7718447 Z M76.9309028,80.7200335 C78.1067739,82.049201 78.6947006,83.9195993 78.6947006,86.3312846 C78.6947006,86.5779342 78.6763279,86.9798758 78.6395819,87.5371212 L67.2851334,87.5371212 C67.5515417,88.697288 68.0981298,89.6107915 68.9249142,90.277659 C69.7516986,90.9445265 70.7576045,91.2779553 71.9426621,91.2779553 C72.7510734,91.2779553 73.5227273,91.1272272 74.2576467,90.8257666 C74.9925662,90.5243059 75.6310178,90.0949593 76.1730209,89.5377138 L77.8954797,91.3601714 C77.1421873,92.1640665 76.2396279,92.7852489 75.1877745,93.2237371 C74.135921,93.6622253 72.9715505,93.8814662 71.694628,93.8814662 C70.1696702,93.8814662 68.8284623,93.5640237 67.6709642,92.9291293 C66.5134661,92.2942349 65.6154999,91.4058528 64.9770386,90.2639563 C64.3385773,89.1220599 64.0193515,87.8111824 64.0193515,86.3312846 C64.0193515,84.8513868 64.3385773,83.5382256 64.9770386,82.3917616 C65.6154999,81.2452975 66.5134661,80.3477804 67.6709642,79.6991832 C68.8284623,79.050586 70.1421111,78.7262923 71.61195,78.7262923 C73.9820652,78.7262923 75.7550317,79.3908661 76.9309028,80.7200335 L76.9309028,80.7200335 Z M74.6021385,82.3506535 C73.8488461,81.660948 72.8613129,81.3161005 71.6395093,81.3161005 C70.4544517,81.3161005 69.4715117,81.660948 68.6906598,82.3506535 C67.9098079,83.0403589 67.4229311,83.9835513 67.2300147,85.1802587 L75.8147495,85.1802587 C75.7596305,83.9835513 75.3554309,83.0403589 74.6021385,82.3506535 L74.6021385,82.3506535 Z M87.807208,79.5141969 C88.6891113,78.9889245 89.7225762,78.7262923 90.9076338,78.7262923 L90.9076338,81.8231 C89.419422,81.7500186 88.2160095,82.0948662 87.2973602,82.857653 C86.3787109,83.6204398 85.8550886,84.65955 85.7264777,85.9750147 L85.7264777,93.7718447 L82.4744755,93.7718447 L82.4744755,78.8359138 L85.7264777,78.8359138 L85.7264777,81.8231 C86.2317348,80.8090959 86.9253046,80.0394693 87.807208,79.5141969 L87.807208,79.5141969 Z" id="iMover" fill="#FFFFFF"></path>
                <g id="mark" transform="translate(4.818179, 0.000000)">
                    <path d="M35.8454861,32.3867343 C35.982076,32.5280175 36.103454,32.6775794 36.2113103,32.8331325 C36.5289635,33.172125 36.8633076,33.4940154 37.2157158,33.7976054 C37.9329973,34.3364858 38.4429116,34.9232957 38.7444023,35.7651125 C38.7676426,35.7079239 38.792045,35.6514978 38.8181376,35.5963788 C38.70014,35.0007455 38.592178,34.4029335 38.4994279,33.802943 C38.4808356,33.7924856 38.4619265,33.7831176 38.4434398,33.7722245 C37.570131,33.26025 36.6821386,32.7771421 35.7821034,32.3194151 C35.8034422,32.3417459 35.8240416,32.3645125 35.8454861,32.3867343" id="Fill-1" fill="#61AF7D"></path>
                    <g id="Group-5" transform="translate(0.000000, 26.548493)">
                        <mask id="mask-2" fill="white">
                            <use xlink:href="#path-1"></use>
                        </mask>
                        <g id="Clip-4"></g>
                        <path d="M60.4297784,3.76174908 L60.4731956,8.86471888 C60.4731956,10.6711175 58.8700343,12.0556273 57.242365,12.3818749 C57.0695414,12.5442906 56.8840412,12.6812166 56.6905125,12.7789274 C55.0442509,13.6108316 53.2636179,14.2296671 51.4177007,13.7573434 C50.4881925,13.5194387 49.6262926,12.9816476 48.9662668,12.2560599 C48.4149424,12.2413542 47.8531599,12.0925548 47.3165192,11.7985507 C46.9585122,11.6024754 46.6302951,11.3562919 46.3277481,11.0765577 C46.3698976,12.268478 45.9303382,13.3440602 45.0785795,14.0697568 C44.9206508,18.2640263 45.1291801,22.8602503 41.3209326,25.3597752 C39.6788966,26.437536 37.550926,25.6553043 36.5617324,24.0729763 C35.5649329,22.4786659 36.2106976,20.3761935 37.6041676,19.3122669 C37.6283586,19.2692392 37.6524441,19.2259937 37.6753675,19.1822036 C37.8084713,18.7619488 37.9038624,18.3312366 37.9764356,17.8950779 C38.1515833,16.1181995 38.092743,14.3152867 38.204191,12.5317636 C37.7524832,13.1299023 37.0386877,13.6042957 36.3703165,13.7940531 C35.5838421,14.0173611 34.3790415,13.9476454 33.6899652,13.4325119 C32.6715099,12.671086 31.7882711,11.86892 30.9805635,10.9642501 C30.428394,10.3959584 29.9389735,9.83834191 29.5899457,9.20469175 C29.5349084,9.10469332 29.4855755,9.00349666 29.4406793,8.90142855 C29.4495529,9.0032788 29.4546236,9.1056737 29.4539897,9.20828646 C29.450398,9.76764585 29.4205025,10.3265695 29.4402568,10.8846217 C30.462832,11.3973588 31.3971995,12.0507254 32.1325452,12.8809955 C32.7934161,13.6271712 33.1236403,14.5316232 33.1201542,15.4353127 C33.3915381,16.496516 33.1821637,17.6740574 32.5100951,18.5711021 C31.4581526,19.9751105 29.4817725,21.3770492 29.567128,19.5828509 C29.8136869,14.4006884 23.980994,17.0562022 23.980994,17.0562022 C24.0985691,16.5239665 22.1655005,11.8082455 22.5333318,11.3977945 C22.4826256,10.6722068 22.4923443,9.93518134 22.4969923,9.20828646 C22.5097745,7.197207 24.080505,5.70888619 25.9754382,5.62130587 C27.3520061,5.55769032 28.5925124,6.51497373 29.1470059,7.772906 C29.0202404,6.42227366 29.6607232,5.07959327 30.8378467,4.29703477 C31.10997,4.1161008 31.4324826,3.98778038 31.7726367,3.90913238 C31.1410275,3.58157762 30.6357613,3.16469965 30.2237733,2.50577756 C29.8717878,1.94293239 24.9128262,0.689575205 24.9425105,0.0272762592 L-0.688290221,14.4056994 L40.0225911,38.0483074 L80.7334694,14.4056994 L60.4297784,3.76174908 Z" id="Fill-3" fill="#93CEC8" mask="url(#mask-2)"></path>
                    </g>
                    <polygon id="Fill-26" fill="#5BABA3" points="38.8758601 52.4358764 50.1540216 58.7420742 69.540861 47.476795 60.3056127 42.2765981"></polygon>
                    <path d="M40.6141726,52.1641464 L40.56241,33.0843813 L51.7878137,39.0282965 C51.9081353,39.092021 52.0399715,39.1240466 52.171702,39.1240466 C52.2931856,39.1240466 52.4149861,39.0969229 52.5279131,39.0423486 L60.4283628,35.2308617 L60.3036044,42.2777007" id="Fill-6" fill="#FFFFFF"></path>
                    <polygon id="Fill-8" fill="#FFFFFF" points="39.4167349 23.665913 32.9317278 27.6618196 21.3115551 21.3997177 39.7546707 11.278853"></polygon>
                    <polygon id="Fill-10" fill="#FFFFFF" points="34.6218925 28.4671446 40.2127801 25.1923595 45.5575314 28.107891 39.7546284 30.9856235"></polygon>
                    <polygon id="Fill-12" fill="#FFFFFF" points="40.9537035 23.8764761 47.3043391 27.3406917 59.6902812 21.2474325 41.3020974 11.1107729"></polygon>
                    <polygon id="Fill-14" fill="#FFFFFF" points="28.3012897 0 8.93183516 9.86727391 19.4628807 20.2741907 38.6028897 9.76073964"></polygon>
                    <path d="M34.8926003,38.6808401 L32.1446407,37.22912 C31.9390693,37.1205161 31.8109305,36.9011295 31.8140996,36.662898 L31.855721,33.5269996 C31.8619536,33.0606671 32.3423949,32.7644844 32.7437134,32.9797315 L35.4084303,34.408794 C35.606924,34.5152194 35.7325275,34.7255646 35.735591,34.956171 L35.7772123,38.114727 C35.783445,38.5868328 35.3001514,38.8961962 34.8926003,38.6808401 L34.8926003,38.6808401 Z M38.8079646,32.4629641 L19.6168269,22.2744534 L19.6168269,41.3087398 L23.930235,43.817306 L23.9785115,35.8345886 C23.9824201,35.3014815 24.2910942,34.7701173 24.8560459,35.0160829 L27.5124173,36.4208539 C28.3013214,36.8679057 28.2983636,37.4652819 28.3013214,37.8845563 L28.3013214,46.3594228 L38.8617343,52.5012652 L38.8079646,32.4629641 Z" id="Fill-16" fill="#FFFFFF"></path>
                    <polygon id="Fill-18" fill="#FFFFFF" points="61.0940191 22.3778178 41.5703332 31.9825686 51.800522 32.9145801 71.8050718 23.2634248"></polygon>
                    <path id="Fill-20" fill="#D8D8A0"></path>
                    <path id="Fill-22" fill="#D8D8A0"></path>
                    <polygon id="Fill-24" fill="#FFFFFF" points="71.8289565 10.7341666 61.3486171 19.8040674 42.1707898 9.36414458 52.6436289 0.853167402"></polygon>
                </g>
            </g>
            <g id="shape-2">
                <use fill="#ECECEC" fill-rule="evenodd" xlink:href="#path-3"></use>
                <use fill="black" fill-opacity="1" filter="url(#filter-4)" xlink:href="#path-3"></use>
            </g>
            <g id="shape-1">
                <use fill="black" fill-opacity="1" filter="url(#filter-6)" xlink:href="#path-5"></use>
                <use stroke="#ECECEC" mask="url(#mask-7)" stroke-width="2" fill="#FFFFFF" fill-rule="evenodd" xlink:href="#path-5"></use>
            </g>
            <polyline id="next-arrow-icon" stroke="#484848" stroke-width="3" points="144.047892 42 151.36 49.3123774 144 56.6723775"></polyline>
            <g id="location-pin-icon" transform="translate(281.000000, 42.000000)" fill="#FFFFFF">
                <g id="48_px---Regular---70-Basic-Icons">
                    <path d="M11,5.6925 C10.9647519,2.68787286 8.50471117,0.278399627 5.5,0.305555556 C2.49528883,0.278399627 0.0352480903,2.68787286 1.22261681e-13,5.6925 C-0.00258219824,6.85568226 0.379899454,7.98701142 1.08777778,8.91 L1.08777778,8.91 L5.00805556,14.1044444 L5.00805556,14.1044444 C5.02770723,14.128448 5.04915813,14.1509204 5.07222222,14.1716667 L5.10583333,14.2022222 L5.10583333,14.2022222 L5.12722222,14.2022222 C5.168142,14.2298553 5.21225995,14.2524273 5.25861111,14.2694444 L5.30444444,14.2847222 C5.36473494,14.3212755 5.43089627,14.3471197 5.5,14.3611111 L5.5,14.3611111 C5.55702742,14.3598326 5.61359501,14.3505761 5.66805556,14.3336111 L5.71388889,14.3183333 C5.76024005,14.3013162 5.804358,14.2787442 5.84527778,14.2511111 L5.86666667,14.2511111 L5.86666667,14.2511111 L5.90027778,14.2205556 C5.92334187,14.1998093 5.94479277,14.1773369 5.96444444,14.1533333 L5.96444444,14.1533333 L9.88472222,8.95888889 L9.88472222,8.95888889 C10.6127535,8.02623622 11.0056111,6.87564794 11,5.6925 L11,5.6925 Z M5.5,1.52777778 C7.83040236,1.49888887 9.74425356,3.36215972 9.77777778,5.6925 C9.77880342,6.59004549 9.48221956,7.46260381 8.93444444,8.17361111 L8.93444444,8.17361111 L5.5,12.7355556 L2.06861111,8.17666667 L2.06861111,8.17666667 C1.51910234,7.46522447 1.2213953,6.59144895 1.22222222,5.6925 C1.25574644,3.36215972 3.16959764,1.49888887 5.5,1.52777778 Z" id="Shape"></path>
                    <path d="M5.5,7.83138889 C6.68127571,7.83138889 7.63888889,6.87377571 7.63888889,5.6925 C7.63888889,4.51122429 6.68127571,3.55361111 5.5,3.55361111 C4.31872429,3.55361111 3.36111111,4.51122429 3.36111111,5.6925 C3.36111111,6.87377571 4.31872429,7.83138889 5.5,7.83138889 Z M5.5,4.77583333 C6.00626102,4.77583333 6.41666667,5.18623898 6.41666667,5.6925 C6.41666667,6.19876102 6.00626102,6.60916667 5.5,6.60916667 C4.99373898,6.60916667 4.58333333,6.19876102 4.58333333,5.6925 C4.58333333,5.18623898 4.99373898,4.77583333 5.5,4.77583333 L5.5,4.77583333 Z" id="Shape"></path>
                </g>
            </g>
            <path d="M236.362563,162 C234.504264,162 232.929426,163.086074 232.124164,164.649522 L229.339678,164.649522 C228.650206,164.649592 228.022974,165.28066 228.022886,165.974282 L228.022886,166.415869 L222.316792,166.415869 C221.603794,166.419844 220.998992,167.068526 221.000001,167.74063 L221.000001,202.184414 C221.000089,202.878015 221.627321,203.509087 222.316792,203.509175 L250.408334,203.509175 C251.097806,203.509087 251.725038,202.878015 251.725125,202.184414 L251.725125,167.74063 C251.725038,167.047007 251.097806,166.41594 250.408334,166.415869 L244.70224,166.415869 L244.70224,165.974282 C244.702152,165.28066 244.074921,164.649592 243.385449,164.649522 L240.600962,164.649522 C239.795613,163.086074 238.220863,162 236.362563,162 L236.362563,162 Z M236.362563,164.649522 C237.406735,164.649522 238.246408,165.340292 238.488654,166.291673 C238.62819,166.860459 239.181944,167.297754 239.764273,167.299043 L242.068658,167.299043 L242.068658,169.065391 L230.656469,169.065391 L230.656469,167.299043 L232.960853,167.299043 C233.543182,167.297718 234.096892,166.860459 234.236472,166.291673 C234.47863,165.340292 235.318392,164.649522 236.362563,164.649522 L236.362563,164.649522 Z M223.633583,169.065391 L228.022886,169.065391 L228.022886,170.390152 C228.022974,171.083774 228.650206,171.714842 229.339678,171.714912 L243.385449,171.714912 C244.074921,171.714842 244.702152,171.083774 244.70224,170.390152 L244.70224,169.065391 L249.091543,169.065391 L249.091543,200.859654 L223.633583,200.859654 L223.633583,169.065391 L223.633583,169.065391 Z M228.022886,173.48126 C226.810868,173.48126 225.828235,174.469796 225.828235,175.689195 C225.828235,176.908593 226.810868,177.897129 228.022886,177.897129 C229.234905,177.897129 230.217538,176.908593 230.217538,175.689195 C230.217538,174.469796 229.234905,173.48126 228.022886,173.48126 L228.022886,173.48126 Z M233.728981,174.364434 C233.001761,174.364434 232.41219,174.957573 232.41219,175.689195 C232.41219,176.42086 233.001761,177.013955 233.728981,177.013955 L245.580101,177.013955 C246.30732,177.013955 246.896892,176.42086 246.896892,175.689195 C246.896892,174.957573 246.30732,174.364434 245.580101,174.364434 L233.728981,174.364434 L233.728981,174.364434 Z M228.022886,180.546642 C226.810868,180.546642 225.828235,181.535178 225.828235,182.75459 C225.828235,183.973988 226.810868,184.962524 228.022886,184.962524 C229.234905,184.962524 230.217538,183.973988 230.217538,182.75459 C230.217538,181.535178 229.234905,180.546642 228.022886,180.546642 L228.022886,180.546642 Z M233.728981,181.429816 C233.001761,181.429816 232.41219,182.022969 232.41219,182.75459 C232.41219,183.486255 233.001761,184.079351 233.728981,184.079351 L245.580101,184.079351 C246.30732,184.079351 246.896892,183.486255 246.896892,182.75459 C246.896892,182.022969 246.30732,181.429816 245.580101,181.429816 L233.728981,181.429816 L233.728981,181.429816 Z M228.022886,187.612046 C226.810868,187.612046 225.828235,188.600582 225.828235,189.81998 C225.828235,191.039379 226.810868,192.027915 228.022886,192.027915 C229.234905,192.027915 230.217538,191.039379 230.217538,189.81998 C230.217538,188.600582 229.234905,187.612046 228.022886,187.612046 L228.022886,187.612046 Z M233.728981,188.49522 C233.001761,188.49522 232.41219,189.088359 232.41219,189.81998 C232.41219,190.551646 233.001761,191.144741 233.728981,191.144741 L245.580101,191.144741 C246.30732,191.144741 246.896892,190.551646 246.896892,189.81998 C246.896892,189.088359 246.30732,188.49522 245.580101,188.49522 L233.728981,188.49522 L233.728981,188.49522 Z M228.022886,194.677437 C226.810868,194.677437 225.828235,195.665973 225.828235,196.885371 C225.828235,198.104769 226.810868,199.093306 228.022886,199.093306 C229.234905,199.093306 230.217538,198.104769 230.217538,196.885371 C230.217538,195.665973 229.234905,194.677437 228.022886,194.677437 L228.022886,194.677437 Z M233.728981,195.56061 C233.001761,195.56061 232.41219,196.153706 232.41219,196.885371 C232.41219,197.616992 233.001761,198.210132 233.728981,198.210132 L245.580101,198.210132 C246.30732,198.210132 246.896892,197.616992 246.896892,196.885371 C246.896892,196.153706 246.30732,195.56061 245.580101,195.56061 L233.728981,195.56061 L233.728981,195.56061 Z" id="list-icon" fill="#F37037"></path>
            <g id="money-icon" transform="translate(270.000000, 161.000000)">
                <path d="M53.3659005,0.668157056 L18.3845391,0.668157056 C16.1465772,0.668157056 14.3216297,2.4892494 14.3216297,4.72248369 L14.3216297,11.6713887 L12.6983869,11.6713887 C10.4604251,11.6809734 8.63547758,13.492481 8.63547758,15.7353 L8.63547758,35.1634798 C8.63547758,37.3967141 10.4604251,39.2178065 12.6983869,39.2178065 L46.3254453,39.2178065 C48.5634072,39.2178065 50.3883546,37.3967141 50.3883546,35.1634798 L50.3883546,28.2145749 L53.3562955,28.2145749 C55.5942574,28.2145749 57.4192049,26.3934825 57.4192049,24.1602482 L57.4192049,4.73206838 C57.4288099,2.4892494 55.6038624,0.668157056 53.3659005,0.668157056 L53.3659005,0.668157056 Z M31.5145558,11.6809734 C32.2829548,9.32313802 33.9926424,7.69373961 35.8752198,7.69373961 C37.7577972,7.69373961 39.4674848,9.33272271 40.2358837,11.6809734 L31.5145558,11.6809734 L31.5145558,11.6809734 Z M47.6797484,35.1538951 C47.6797484,35.9015015 47.0746342,36.5053374 46.3254453,36.5053374 L12.6983869,36.5053374 C11.949198,36.5053374 11.3440838,35.9015015 11.3440838,35.1538951 L11.3440838,15.7353 C11.3440838,14.9876937 11.949198,14.3838578 12.6983869,14.3838578 L46.3254453,14.3838578 C47.0746342,14.3838578 47.6797484,14.9876937 47.6797484,15.7353 L47.6797484,35.1538951 L47.6797484,35.1538951 Z M54.7202036,24.1506635 C54.7202036,24.8982699 54.1150895,25.5021057 53.3659005,25.5021057 L50.3979596,25.5021057 L50.3979596,15.7353 C50.3979596,13.5020657 48.5730122,11.6809734 46.3350503,11.6809734 L43.0597498,11.6809734 C42.1184611,7.74166309 39.2369651,4.99085519 35.8848248,4.99085519 C32.5230794,4.99085519 29.6511884,7.74166309 28.7098997,11.6809734 L17.0206309,11.6809734 L17.0206309,4.73206838 C17.0206309,3.98446205 17.6257451,3.38062617 18.3749341,3.38062617 L53.3562955,3.38062617 C54.1054845,3.38062617 54.7105986,3.98446205 54.7105986,4.73206838 L54.7105986,24.1506635 L54.7202036,24.1506635 Z" id="Shape" fill="#F37037"></path>
                <g transform="translate(0.000000, 2.590643)"></g>
                <path d="M29.5167186,20.6139105 C30.4868223,20.6139105 31.2648262,21.3998556 31.2648262,22.3583253 C31.2648262,23.1059316 31.8699403,23.7097675 32.6191293,23.7097675 C33.3683183,23.7097675 33.9734324,23.1059316 33.9734324,22.3583253 C33.9734324,20.3742931 32.6671542,18.6873865 30.8614167,18.1123047 L30.8614167,17.3646984 C30.8614167,16.6170921 30.2563026,16.0132562 29.5071136,16.0132562 C28.7579247,16.0132562 28.1528105,16.6170921 28.1528105,17.3646984 L28.1528105,18.1123047 C26.356678,18.6873865 25.0503998,20.3742931 25.0503998,22.3583253 C25.0503998,24.8120076 27.048237,26.8152092 29.5167186,26.8152092 C29.4782987,26.8152092 29.5167186,26.8152092 29.5263236,26.8152092 C30.4099824,26.9014714 31.2744312,27.6394931 31.2744312,28.5404545 C31.2744312,29.5085089 30.4868223,30.2848693 29.5263236,30.2848693 C28.5562199,30.2848693 27.778216,29.4989242 27.778216,28.5404545 C27.778216,27.7928482 27.1731019,27.1890123 26.4239129,27.1890123 C25.6747239,27.1890123 25.0696098,27.7928482 25.0696098,28.5404545 C25.0696098,30.5244867 26.375888,32.2113933 28.1720205,32.7864751 L28.1720205,33.5244967 C28.1720205,34.2721031 28.7771346,34.8759389 29.5263236,34.8759389 C30.2755126,34.8759389 30.8806267,34.2721031 30.8806267,33.5244967 L30.8806267,32.7864751 C32.6767592,32.2113933 33.9926424,30.5244867 33.9926424,28.5404545 C33.9926424,26.0867722 31.8219154,24.0931554 29.3630388,24.0931554 C29.4014588,24.0931554 29.3630388,24.0931554 29.3534338,24.0931554 C28.4697751,24.0068931 27.778216,23.2592868 27.778216,22.3583253 C27.759006,21.3902709 28.546615,20.6139105 29.5167186,20.6139105 L29.5167186,20.6139105 Z" id="Shape" fill="#F37037"></path>
                <path d="M19.4410876,29.0292741 L16.0121073,29.0292741 C15.2629184,29.0292741 14.6578042,29.6331099 14.6578042,30.3807163 C14.6578042,31.1283226 15.2629184,31.7321585 16.0121073,31.7321585 L19.4410876,31.7321585 C20.1902765,31.7321585 20.7953907,31.1283226 20.7953907,30.3807163 C20.7953907,29.6331099 20.1902765,29.0292741 19.4410876,29.0292741 L19.4410876,29.0292741 Z" id="Shape" fill="#F37037"></path>
                <path d="M19.4410876,24.0931554 L14.6578042,24.0931554 C13.9086153,24.0931554 13.3035011,24.6969912 13.3035011,25.4445976 C13.3035011,26.1922039 13.9086153,26.7960398 14.6578042,26.7960398 L19.4410876,26.7960398 C20.1902765,26.7960398 20.7953907,26.1922039 20.7953907,25.4445976 C20.7953907,24.6969912 20.1902765,24.0931554 19.4410876,24.0931554 L19.4410876,24.0931554 Z" id="Shape" fill="#F37037"></path>
                <path d="M19.4410876,19.1570366 L16.0121073,19.1570366 C15.2629184,19.1570366 14.6578042,19.7608725 14.6578042,20.5084789 C14.6578042,21.2560852 15.2629184,21.8599211 16.0121073,21.8599211 L19.4410876,21.8599211 C20.1902765,21.8599211 20.7953907,21.2560852 20.7953907,20.5084789 C20.7953907,19.7608725 20.1902765,19.1570366 19.4410876,19.1570366 L19.4410876,19.1570366 Z" id="Shape" fill="#F37037"></path>
                <path d="M39.5827446,21.8695058 L43.0117249,21.8695058 C43.7609138,21.8695058 44.366028,21.2656699 44.366028,20.5180636 C44.366028,19.7704572 43.7609138,19.1666213 43.0117249,19.1666213 L39.5827446,19.1666213 C38.8335557,19.1666213 38.2284415,19.7704572 38.2284415,20.5180636 C38.2284415,21.2656699 38.8335557,21.8695058 39.5827446,21.8695058 L39.5827446,21.8695058 Z" id="Shape" fill="#F37037"></path>
                <path d="M44.375633,24.0931554 L39.5923496,24.0931554 C38.8431607,24.0931554 38.2380465,24.6969912 38.2380465,25.4445976 C38.2380465,26.1922039 38.8431607,26.7960398 39.5923496,26.7960398 L44.375633,26.7960398 C45.124822,26.7960398 45.7299361,26.1922039 45.7299361,25.4445976 C45.7299361,24.6969912 45.115217,24.0931554 44.375633,24.0931554 L44.375633,24.0931554 Z" id="Shape" fill="#F37037"></path>
                <path d="M43.0117249,29.0292741 L39.5827446,29.0292741 C38.8335557,29.0292741 38.2284415,29.6331099 38.2284415,30.3807163 C38.2284415,31.1283226 38.8335557,31.7321585 39.5827446,31.7321585 L43.0117249,31.7321585 C43.7609138,31.7321585 44.366028,31.1283226 44.366028,30.3807163 C44.375633,29.6331099 43.7609138,29.0292741 43.0117249,29.0292741 L43.0117249,29.0292741 Z" id="Shape" fill="#F37037"></path>
            </g>
            <path d="M377.32494,161 C365.517058,161 355.649883,168.850696 355.649883,178.917525 C355.649883,184.348926 358.765574,188.801303 363.208468,191.974963 L359.713956,200.280075 C359.468547,200.857476 359.61508,201.526764 360.079364,201.949075 C360.543648,202.371387 361.224332,202.454532 361.776781,202.156415 L372.198691,196.465875 C373.810921,196.717071 375.824435,196.850347 377.32494,196.850347 C389.132824,196.850347 399,188.984286 399,178.917525 C399,168.850696 389.132824,161 377.32494,161 L377.32494,161 Z M377.32494,163.952929 C387.831138,163.952929 396.04431,170.806962 396.04431,178.917525 C396.04431,187.02802 387.831138,193.897418 377.32494,193.897418 C375.837145,193.897418 373.463282,193.739535 372.183272,193.497542 C371.846945,193.433235 371.498703,193.487597 371.198042,193.651341 L364.070544,197.542464 L366.364258,192.082597 C366.64447,191.423433 366.410855,190.658412 365.810066,190.267776 C361.36929,187.438575 358.605572,183.597012 358.605572,178.917525 C358.605572,170.806962 366.818744,163.952929 377.32494,163.952929 L377.32494,163.952929 Z M366.487411,174.780324 C364.328428,174.780324 362.546492,176.560596 362.546492,178.717563 C362.546492,180.874559 364.328428,182.654781 366.487411,182.654781 C368.646395,182.654781 370.428331,180.874559 370.428331,178.717563 C370.428331,176.560596 368.646395,174.780324 366.487411,174.780324 L366.487411,174.780324 Z M377.32494,174.780324 C375.165957,174.780324 373.384021,176.560596 373.384021,178.717563 C373.384021,180.874559 375.165957,182.654781 377.32494,182.654781 C379.483924,182.654781 381.26586,180.874559 381.26586,178.717563 C381.26586,176.560596 379.483924,174.780324 377.32494,174.780324 L377.32494,174.780324 Z M388.162471,174.780324 C386.003488,174.780324 384.22155,176.560596 384.22155,178.717563 C384.22155,180.874559 386.003488,182.654781 388.162471,182.654781 C390.321455,182.654781 392.103391,180.874559 392.103391,178.717563 C392.103391,176.560596 390.321455,174.780324 388.162471,174.780324 L388.162471,174.780324 Z M366.487411,177.733253 C367.049042,177.733253 367.472641,178.156457 367.472641,178.717563 C367.472641,179.278668 367.049042,179.701872 366.487411,179.701872 C365.925781,179.701872 365.502181,179.278668 365.502181,178.717563 C365.502181,178.156457 365.925781,177.733253 366.487411,177.733253 L366.487411,177.733253 Z M377.32494,177.733253 C377.886571,177.733253 378.31017,178.156457 378.31017,178.717563 C378.31017,179.278668 377.886571,179.701872 377.32494,179.701872 C376.76331,179.701872 376.33971,179.278668 376.33971,178.717563 C376.33971,178.156457 376.76331,177.733253 377.32494,177.733253 L377.32494,177.733253 Z M388.162471,177.733253 C388.724101,177.733253 389.147701,178.156457 389.147701,178.717563 C389.147701,179.278668 388.724101,179.701872 388.162471,179.701872 C387.600841,179.701872 387.177241,179.278668 387.177241,178.717563 C387.177241,178.156457 387.600841,177.733253 388.162471,177.733253 L388.162471,177.733253 Z" id="quote-icon" fill="#F37037"></path>
            <path d="M13.215,235.415 C13.215,233.866992 13.4894973,232.454006 14.0385,231.176 C14.5875027,229.897994 15.3164955,228.849504 16.2255,228.0305 C17.1345045,227.211496 18.1559943,226.577002 19.29,226.127 C20.4240057,225.676998 21.6029939,225.452 22.827,225.452 C24.0510061,225.452 25.2299943,225.676998 26.364,226.127 C27.4980057,226.577002 28.5194955,227.211496 29.4285,228.0305 C30.3375045,228.849504 31.0664973,229.897994 31.6155,231.176 C32.1645027,232.454006 32.439,233.866992 32.439,235.415 C32.439,238.277014 31.539009,240.634991 29.739,242.489 L31.98,245 L30.171,246.593 L27.849,244.028 C26.3369924,244.946005 24.6630092,245.405 22.827,245.405 C21.1889918,245.405 19.6500072,245.027004 18.21,244.271 C16.7699928,243.514996 15.5775047,242.363008 14.6325,240.815 C13.6874953,239.266992 13.215,237.46701 13.215,235.415 Z M15.915,235.415 C15.915,237.791012 16.5899932,239.644993 17.94,240.977 C19.2900067,242.309007 20.9189905,242.975 22.827,242.975 C24.0510061,242.975 25.166995,242.696003 26.175,242.138 L22.854,238.412 L24.69,236.819 L28.038,240.599 C29.1720057,239.230993 29.739,237.50301 29.739,235.415 C29.739,233.038988 29.0640068,231.189507 27.714,229.8665 C26.3639933,228.543493 24.7350095,227.882 22.827,227.882 C20.9189905,227.882 19.2900067,228.543493 17.94,229.8665 C16.5899932,231.189507 15.915,233.038988 15.915,235.415 Z M44.373,243.434 C44.0309983,244.082003 43.5090035,244.572498 42.807,244.9055 C42.1049965,245.238502 41.349004,245.405 40.539,245.405 C39.0629926,245.405 37.8840044,244.914505 37.002,243.9335 C36.1199956,242.952495 35.679,241.706008 35.679,240.194 L35.679,232.013 L38.217,232.013 L38.217,239.816 C38.217,240.788005 38.4554976,241.588997 38.9325,242.219 C39.4095024,242.849003 40.151995,243.164 41.16,243.164 C42.168005,243.164 42.9329974,242.862503 43.455,242.2595 C43.9770026,241.656497 44.238,240.851005 44.238,239.843 L44.238,232.013 L46.776,232.013 L46.776,242.597 C46.776,243.443004 46.8209995,244.243996 46.911,245 L44.481,245 C44.4089996,244.603998 44.373,244.082003 44.373,243.434 Z M56.523,243.137 C57.6570057,243.137 58.6154961,242.727504 59.3985,241.9085 C60.1815039,241.089496 60.573,239.951007 60.573,238.493 C60.573,237.052993 60.1815039,235.923504 59.3985,235.1045 C58.6154961,234.285496 57.6570057,233.876 56.523,233.876 C55.3889943,233.876 54.4305039,234.285496 53.6475,235.1045 C52.8644961,235.923504 52.473,237.052993 52.473,238.493 C52.473,239.951007 52.8644961,241.089496 53.6475,241.9085 C54.4305039,242.727504 55.3889943,243.137 56.523,243.137 Z M56.523,231.608 C58.4490096,231.608 60.0374937,232.260493 61.2885,233.5655 C62.5395063,234.870507 63.165,236.51299 63.165,238.493 C63.165,240.49101 62.5440062,242.142493 61.302,243.4475 C60.0599938,244.752507 58.4670097,245.405 56.523,245.405 C54.5789903,245.405 52.9860062,244.752507 51.744,243.4475 C50.5019938,242.142493 49.881,240.49101 49.881,238.493 C49.881,236.51299 50.5064937,234.870507 51.7575,233.5655 C53.0085063,232.260493 54.5969904,231.608 56.523,231.608 Z M69.672,227.909 L69.672,232.013 L72.48,232.013 L72.48,234.308 L69.672,234.308 L69.672,241.058 C69.672,241.670003 69.8114986,242.119999 70.0905,242.408 C70.3695014,242.696001 70.8329968,242.84 71.481,242.84 C71.8590019,242.84 72.1919986,242.804 72.48,242.732 L72.48,244.892 C72.0479978,245.054001 71.4720036,245.135 70.752,245.135 C69.6359944,245.135 68.7540032,244.811003 68.106,244.163 C67.4579968,243.514997 67.134,242.606006 67.134,241.436 L67.134,234.308 L64.65,234.308 L64.65,232.013 L65.352,232.013 C66.0180033,232.013 66.5174983,231.828502 66.8505,231.4595 C67.1835017,231.090498 67.35,230.609003 67.35,230.015 L67.35,227.909 L69.672,227.909 Z M77.367,237.17 L84.468,237.17 C84.4319998,236.197995 84.1080031,235.401503 83.496,234.7805 C82.8839969,234.159497 82.0200056,233.849 80.904,233.849 C79.895995,233.849 79.0680032,234.177497 78.42,234.8345 C77.7719968,235.491503 77.4210003,236.269995 77.367,237.17 Z M84.846,240.545 L87.033,241.301 C86.6549981,242.507006 85.9530051,243.492496 84.927,244.2575 C83.9009949,245.022504 82.6590073,245.405 81.201,245.405 C79.3829909,245.405 77.8395063,244.779506 76.5705,243.5285 C75.3014937,242.277494 74.667,240.590011 74.667,238.466 C74.667,236.48599 75.2789939,234.848006 76.503,233.552 C77.7270061,232.255994 79.1849915,231.608 80.877,231.608 C82.8390098,231.608 84.3689945,232.224494 85.467,233.4575 C86.5650055,234.690506 87.114,236.34199 87.114,238.412 C87.114,238.736002 87.0960002,239.005999 87.06,239.222 L77.286,239.222 C77.3040001,240.374006 77.6864963,241.318996 78.4335,242.057 C79.1805037,242.795004 80.1029945,243.164 81.201,243.164 C83.0550093,243.164 84.2699971,242.291009 84.846,240.545 Z M99.318,245 L102.126,245 L98.994,236.873 C101.991,236.225 104.124,233.984 104.124,230.717 C104.124,227.936 102.18,225.857 98.859,225.857 L92.649,225.857 L88.599,245 L91.245,245 L92.919,237.062 L96.321,237.062 L99.318,245 Z M93.405,234.713 L94.809,228.206 L98.427,228.206 C100.425,228.206 101.451,229.286 101.451,230.879 C101.451,233.309 99.669,234.713 97.158,234.713 L93.405,234.713 Z M113.25,243.488 C113.223,243.839 113.223,244.109 113.223,244.244 C113.223,244.595 113.25,244.865 113.277,245 L115.707,245 C115.68,244.784 115.68,244.649 115.68,244.568 C115.68,244.028 115.68,242.975 115.977,241.625 L118.002,232.013 L115.491,232.013 L113.898,239.6 C113.52,241.436 112.359,243.11 110.415,243.11 C108.714,243.11 108.12,242.111 108.12,240.788 C108.12,240.383 108.174,239.978 108.255,239.546 L109.848,232.013 L107.31,232.013 L105.69,239.6 C105.582,240.113 105.528,240.626 105.528,241.085 C105.528,243.596 107.04,245.27 109.713,245.27 C110.928,245.27 112.386,244.703 113.25,243.488 Z M130.395,245 L132.15,236.765 C132.231,236.333 132.285,235.901 132.285,235.523 C132.285,233.147 130.692,231.635 128.424,231.635 C126.858,231.635 125.4,232.094 124.401,233.444 C124.509,232.85 124.563,232.121 124.563,232.013 L122.079,232.013 C122.079,232.067 122.025,233.093 121.755,234.308 L119.487,245 L122.025,245 L123.645,237.44 C124.023,235.685 125.211,233.876 127.263,233.876 C128.829,233.876 129.639,234.713 129.639,236.144 C129.639,236.549 129.585,236.873 129.531,237.143 L127.857,245 L130.395,245 Z M145.38,245 L147.135,236.765 C147.216,236.333 147.27,235.901 147.27,235.523 C147.27,233.147 145.677,231.635 143.409,231.635 C141.843,231.635 140.385,232.094 139.386,233.444 C139.494,232.85 139.548,232.121 139.548,232.013 L137.064,232.013 C137.064,232.067 137.01,233.093 136.74,234.308 L134.472,245 L137.01,245 L138.63,237.44 C139.008,235.685 140.196,233.876 142.248,233.876 C143.814,233.876 144.624,234.713 144.624,236.144 C144.624,236.549 144.57,236.873 144.516,237.143 L142.842,245 L145.38,245 Z M152.508,237.17 C152.967,235.469 154.398,233.849 156.585,233.849 C158.745,233.849 159.474,235.334 159.474,236.63 C159.474,236.846 159.447,237.062 159.42,237.17 L152.508,237.17 Z M161.715,239.222 C161.85,238.79 162.093,237.899 162.093,236.846 C162.093,233.768 160.23,231.608 156.72,231.608 C153.102,231.608 149.592,234.578 149.592,239.492 C149.592,243.38 152.265,245.405 155.478,245.405 C158.178,245.405 160.257,243.947 161.175,242.246 L159.258,241.004 C158.664,242.057 157.449,243.164 155.424,243.164 C153.615,243.164 152.13,241.814 152.13,239.681 C152.13,239.519 152.13,239.411 152.157,239.222 L161.715,239.222 Z M172.947,234.632 L173.541,231.851 C173.352,231.824 173.055,231.797 172.812,231.797 C171.381,231.797 169.599,232.31 168.546,234.038 C168.681,233.579 168.789,232.58 168.789,232.013 L166.305,232.013 C166.305,232.175 166.224,233.12 165.981,234.308 L163.713,245 L166.224,245 L167.547,238.844 C168.195,235.82 169.95,234.551 172.029,234.551 C172.326,234.551 172.623,234.578 172.947,234.632 Z" id="QuoteRunner" fill="#021E37"></path>
        </g>
    </g>
</svg>