<?xml version="1.0" encoding="UTF-8"?>
<svg width="236px" height="127px" viewBox="0 0 236 127" version="1.1" xmlns="http://www.w3.org/2000/svg" xmlns:xlink="http://www.w3.org/1999/xlink">
    <!-- Generator: Sketch 42 (36781) - http://www.bohemiancoding.com/sketch -->
    <title>Box+Plant</title>
    <desc>Created with Sketch.</desc>
    <defs></defs>
    <g id="Page-1" stroke="none" stroke-width="1" fill="none" fill-rule="evenodd">
        <g id="Desktop-HD-Copy-39" transform="translate(-286.000000, -792.000000)">
            <g id="Box+Plant" transform="translate(286.000000, 792.000000)">
                <path d="M54.0205794,92 L88.9787176,92 C88.9787176,92 90.6654742,72.5 72.6249106,72.5 C54.584347,72.5 54.0205794,92 54.0205794,92 Z" id="Path-31" stroke="#46DEB0" stroke-width="1" fill="#46DEB0"></path>
                <path d="M60.1909367,103.504138 C58.0012539,101.016571 58.9199592,99 62.2171029,99 L157.049673,99 C160.358377,99 163.040611,101.679829 163.040611,105.007341 L163.040611,109.003347 C163.040611,112.32111 160.361028,115.005441 157.035821,114.99893 L76.164283,114.840574 C72.8479292,114.83408 68.3806751,112.808007 66.1947218,110.324677 L60.1909367,103.504138 Z" id="Rectangle-12-Copy-3" fill="#D3D3D3"></path>
                <path d="M22.3651111,103.210653 C20.0074989,100.885174 20.7801797,99 24.0923026,99 L135.122422,99 C138.433936,99 141.118448,101.679829 141.118448,105.007341 L141.118448,109.003347 C141.118448,112.32111 138.434036,115.006124 135.118525,115.000487 L40.1437313,114.839016 C36.8300656,114.833382 32.2319914,112.943055 29.8749745,110.618162 L22.3651111,103.210653 Z" id="Rectangle-12-Copy-4" fill="#D3D3D3"></path>
                <path d="M1.75944408,117.871529 C-0.815952157,116.061262 -0.345612222,114.59375 2.78669892,114.59375 L70.3095778,114.59375 C73.4523112,114.59375 77.106391,116.887386 78.4764769,119.727682 L79.0235231,120.861752 C80.3912435,123.697144 78.9451127,125.991124 75.8041878,125.985518 L18.8396211,125.883858 C15.6939109,125.878245 11.062326,124.410602 8.48064149,122.595915 L1.75944408,117.871529 Z" id="Rectangle-12-Copy-5" fill="#D3D3D3"></path>
                <path d="M48.3707805,0.203368825 C44.7846249,0.212381285 43.884238,2.31731319 46.3691983,4.91478365 L76.6442524,36.5605845 L164.79189,37.3862906 L133.477748,4.69783664 C130.992705,2.10373068 126.080184,0.00807532317 122.484871,0.017110796" id="Path-10-Copy" fill="#735218"></path>
                <path d="M112.018201,36.3259637 L202.956816,36.3259637 L202.956816,110.590123 C202.956816,113.35355 200.708883,115.59375 197.9543,115.59375 L112.018201,115.59375 L112.018201,36.3259637 Z" id="Rectangle-12" fill="#E9BD6F"></path>
                <path d="M76,36 L115.173557,36 L115.173557,115.267786 L81.0011478,115.267786 C78.2390901,115.267786 76,113.023142 76,110.264159 L76,36 Z" id="Rectangle-12-Copy" fill="#AD8134"></path>
                <path d="M115.236944,36.3357921 L146.543048,3.61225897 C148.454327,1.61444396 152.24895,0.0159266228 154.995485,0.0416542621 L233.159602,0.773841658 C235.916475,0.799666137 236.566281,2.40215795 234.611174,4.35291791 L202.337652,36.5546871 L115.236944,36.3357921 Z" id="Path-10" fill="#DCB46D"></path>
                <polygon id="Path-11" fill="#735218" points="167.786113 20.6375476 182.274077 20.6375476 199.646632 0.40774796 185.164578 0.40774796"></polygon>
                <path d="M56.9958019,121.476081 C50.351648,116.873197 46,109.19479 46,100.5 C46,97.555395 47.4173257,92.0958815 47.4173257,92.0958815 L95.710958,92.4730415 C95.710958,92.4730415 97,97.6955794 97,100.5 C97,109.336309 92.5055414,117.122881 85.6779577,121.698382 L89.5,126.585502 L53,126.470833 L56.9958019,121.476081 Z" id="Combined-Shape" fill="#0FBBEF"></path>
                <path d="M56,92 C57.5,117.5 77.9122933,126.424676 78,126.5 C78.0877067,126.575324 53.5,126.5 53.5,126.5 L57,121.5 C57,121.5 41.5,111 48,92 L56,92 Z" id="Path-30" fill="#16A1CC"></path>
                <polygon id="Path-32" fill="#46DEB0" points="54.5 92 45 88 56 86.5 49 79 59 81 54.5 70.5 63.5 76 62.5 65 70 73.5 73 63 76.5 74 83.5 65 83 76.5 92.5 70.5 87.5 81 99.5 80 89 86.5 99 88 89.5 92.5"></polygon>
            </g>
        </g>
    </g>
</svg>