<?xml version="1.0" encoding="UTF-8"?>
<svg width="199px" height="92px" viewBox="0 0 199 92" version="1.1" xmlns="http://www.w3.org/2000/svg" xmlns:xlink="http://www.w3.org/1999/xlink">
    <!-- Generator: Sketch 42 (36781) - http://www.bohemiancoding.com/sketch -->
    <title>Path 35</title>
    <desc>Created with Sketch.</desc>
    <defs></defs>
    <g id="Page-1" stroke="none" stroke-width="1" fill="none" fill-rule="evenodd" opacity="0.957540761">
        <g id="Desktop-HD-Copy-64" transform="translate(0.000000, -259.000000)" fill="#FFFFFF">
            <g id="Group-4" transform="translate(-9.000000, -14.000000)">
                <path d="M9,365 L206.909091,365 C206.909091,365 210.812121,338.795624 184.075127,338.795624 C184.075127,338.795624 180.608978,313.527507 163.139394,313.527507 C145.66981,313.527507 141.69521,330.060832 141.69521,330.060832 C141.69521,330.060832 141.69521,316.473377 128.431266,316.473377 C128.431266,316.473377 131.915152,273 95.1151515,273 C65.2848485,273 65.2848485,301.157576 65.2848485,301.157576 C65.2848485,301.157576 41.030303,299.484848 41.030303,322.296572 C41.030303,320.996842 39.0787879,311.297204 25.4181818,311.297204 C25.7286567,311.298345 24.734375,286.5 9,286.5 C8.89453125,286.5 9,365 9,365 Z" id="Path-35"></path>
            </g>
        </g>
    </g>
</svg>