<svg width="309" height="324" viewBox="0 0 309 324" xmlns="http://www.w3.org/2000/svg" xmlns:xlink="http://www.w3.org/1999/xlink"><title>HowWeDoIt</title><defs><circle id="b" cx="143.5" cy="169.5" r="131.5"/><filter x="-50%" y="-50%" width="200%" height="200%" filterUnits="objectBoundingBox" id="a"><feOffset dy="2" in="SourceAlpha" result="shadowOffsetOuter1"/><feGaussianBlur stdDeviation="10.5" in="shadowOffsetOuter1" result="shadowBlurOuter1"/><feColorMatrix values="0 0 0 0 0.672167304 0 0 0 0 0.672167304 0 0 0 0 0.672167304 0 0 0 0.689311594 0" in="shadowBlurOuter1"/></filter><path id="c" d="M206.72 93.693v130.825h-24.942V93.693h24.94z"/><path id="e" d="M84 49h117.153v71.548H84V49z"/></defs><g transform="translate(9)" fill="none" fill-rule="evenodd"><use filter="url(#a)" xlink:href="#b" fill="#000"/><circle fill="#FFF" cx="150" cy="150" r="150"/><path d="M107.377 224.518H88.69c-1.726 0-3.127-1.4-3.127-3.128v-83.97c0-1.73 1.4-3.13 3.128-3.13h18.687c1.728 0 3.128 1.4 3.128 3.13v83.97c0 1.727-1.4 3.128-3.128 3.128" fill="#46D1DE"/><path d="M139.233 224.518h-18.255c-1.847 0-3.343-1.497-3.343-3.343v-96.38c0-1.847 1.496-3.344 3.343-3.344h18.255c1.846 0 3.343 1.498 3.343 3.344v96.38c0 1.847-1.497 3.344-3.343 3.344" fill="#46D5DE"/><path d="M171.094 224.518H153.26c-1.963 0-3.554-1.59-3.554-3.554V111.617c0-1.962 1.59-3.554 3.554-3.554h17.834c1.963 0 3.554 1.592 3.554 3.554v109.347c0 1.963-1.59 3.554-3.554 3.554" fill="#46DEB0"/><mask id="d" fill="#fff"><use xlink:href="#c"/></mask><path d="M202.953 224.518h-17.408c-2.08 0-3.767-1.686-3.767-3.767V97.46c0-2.08 1.686-3.767 3.767-3.767h17.408c2.08 0 3.767 1.686 3.767 3.767v123.29c0 2.082-1.687 3.768-3.767 3.768" fill="#36BB93" mask="url(#d)"/><mask id="f" fill="#fff"><use xlink:href="#e"/></mask><path d="M194.816 49c-3.574-.074-6.533 2.763-6.608 6.337-.022 1.04.21 2.025.626 2.905l-28.8 27.19-.772-11.963c-.08-1.245-.85-2.3-2.012-2.752-1.165-.455-2.444-.2-3.343.664l-31.496 30.145-.694-10.79c-.078-1.215-.826-2.26-1.95-2.725-1.127-.464-2.394-.255-3.307.55l-22.686 19.947c-.93-.554-2.006-.884-3.164-.908-3.575-.075-6.533 2.76-6.608 6.336-.075 3.574 2.76 6.533 6.336 6.608 3.574.075 6.533-2.762 6.608-6.336.02-.96-.175-1.87-.532-2.697l21.418-18.834.702 10.884c.08 1.244.852 2.298 2.014 2.75 1.163.452 2.444.197 3.34-.665l31.497-30.146.77 11.95c.08 1.24.848 2.29 2.005 2.745 1.153.453 2.433.205 3.336-.647l30.083-28.4c.882.482 1.888.77 2.964.792 3.575.075 6.533-2.76 6.608-6.336.075-3.575-2.762-6.534-6.336-6.61" fill="#ED3A64" mask="url(#f)"/></g></svg>