<svg width="323" height="331" viewBox="0 0 323 331" xmlns="http://www.w3.org/2000/svg" xmlns:xlink="http://www.w3.org/1999/xlink"><title>WhatWeDo</title><defs><circle id="b" cx="152.5" cy="168.5" r="131.5"/><filter x="-50%" y="-50%" width="200%" height="200%" filterUnits="objectBoundingBox" id="a"><feOffset dy="2" in="SourceAlpha" result="shadowOffsetOuter1"/><feGaussianBlur stdDeviation="15" in="shadowOffsetOuter1" result="shadowBlurOuter1"/><feColorMatrix values="0 0 0 0 0.0235294118 0 0 0 0 0.329411765 0 0 0 0 0.4 0 0 0 1 0" in="shadowBlurOuter1"/></filter><circle id="c" cx="150" cy="150" r="150"/></defs><g fill="none" fill-rule="evenodd"><use filter="url(#a)" xlink:href="#b" fill="#000" transform="translate(9)"/><g transform="translate(9)"><mask id="d" fill="#fff"><use xlink:href="#c"/></mask><use fill="#FFF" xlink:href="#c"/><path d="M39.45 57l-3.175-6.6h-1.4V57h-3.95V39.275h7.025c3.5 0 5.75 2.4 5.75 5.55 0 2.4-1.325 4.225-3.5 5L43.8 57h-4.35zm-4.575-10H37.2c1.625 0 2.5-.9 2.5-2.15 0-1.325-.875-2.15-2.5-2.15h-2.325V47zm22.933 10v-3.75h-7.3v-3.4h6.6v-3.475h-6.6V43h7.275v-3.725H46.558V57h11.25zm14.86 0v-3.775h-7.65v-13.95h-3.95V57h11.6zm5.132-8.875c0 3.7 2.65 5.35 5.125 5.35 2.45 0 5.1-1.65 5.1-5.35 0-3.7-2.65-5.375-5.1-5.375-2.475 0-5.125 1.675-5.125 5.375zm-4.1.025c0-5.625 4.225-9.25 9.225-9.25 4.975 0 9.2 3.625 9.2 9.25 0 5.6-4.225 9.225-9.2 9.225-5 0-9.225-3.625-9.225-9.225zm29.358 9.225c5.5 0 7.85-3.75 8.425-6.2l-3.775-1.075c-.35 1.275-1.575 3.325-4.65 3.325-2.65 0-5.1-1.925-5.1-5.25 0-3.725 2.675-5.425 5.05-5.425 3.125 0 4.25 2.075 4.525 3.3l3.725-1.175c-.575-2.55-2.925-5.975-8.25-5.975-4.95 0-9.15 3.75-9.15 9.275s4.1 9.2 9.2 9.2zM125.142 57l-1.275-3.6h-6.85l-1.275 3.6h-4.15l6.675-17.725h4.575l6.6 17.725h-4.3zm-4.65-13.325l-2.175 6.125h4.3l-2.125-6.125zm22.858-.625h-5.475V57h-3.95V43.05h-5.45v-3.775h14.875v3.775zM149.683 57V39.275h-4V57h4zm6.834-8.875c0 3.7 2.65 5.35 5.125 5.35 2.45 0 5.1-1.65 5.1-5.35 0-3.7-2.65-5.375-5.1-5.375-2.475 0-5.125 1.675-5.125 5.375zm-4.1.025c0-5.625 4.225-9.25 9.225-9.25 4.975 0 9.2 3.625 9.2 9.25 0 5.6-4.225 9.225-9.2 9.225-5 0-9.225-3.625-9.225-9.225zM189 57V39.275h-3.95V50.05l-6.65-10.775h-4.8V57h3.925V45.35l7.3 11.65H189zm34.208-13.375c-.375-2.075-2.05-4.725-6.475-4.725-3.4 0-6.35 2.35-6.35 5.7 0 2.625 1.825 4.625 4.825 5.2l2.425.45c1.175.225 1.9.875 1.9 1.775 0 1.1-.95 1.85-2.5 1.85-2.425 0-3.525-1.425-3.675-3.05l-3.625.875c.25 2.5 2.35 5.675 7.25 5.675 4.225 0 6.55-2.825 6.55-5.6 0-2.525-1.75-4.7-5.125-5.325l-2.375-.45c-1.225-.225-1.75-.85-1.75-1.7 0-.975.95-1.9 2.425-1.9 2.15 0 2.825 1.4 2.95 2.225l3.55-1zM237.418 57v-3.75h-7.3v-3.4h6.6v-3.475h-6.6V43h7.274v-3.725h-11.225V57h11.25zm11.407.375c5.5 0 7.85-3.75 8.425-6.2l-3.775-1.075c-.35 1.275-1.575 3.325-4.65 3.325-2.65 0-5.1-1.925-5.1-5.25 0-3.725 2.675-5.425 5.05-5.425 3.125 0 4.25 2.075 4.525 3.3l3.725-1.175c-.575-2.55-2.925-5.975-8.25-5.975-4.95 0-9.15 3.75-9.15 9.275s4.1 9.2 9.2 9.2zm17.708.025c3.9 0 7.025-2.35 7.025-6.8V39.275h-3.95v11c0 2.15-1.2 3.225-3.075 3.225-1.875 0-3.075-1.075-3.075-3.225v-11h-3.95V50.6c0 4.45 3.125 6.8 7.025 6.8zm19.184-.4l-3.175-6.6h-1.4V57h-3.95V39.275h7.025c3.5 0 5.75 2.4 5.75 5.55 0 2.4-1.325 4.225-3.5 5l3.6 7.175h-4.35zm-4.575-10h2.325c1.625 0 2.5-.9 2.5-2.15 0-1.325-.875-2.15-2.5-2.15h-2.325V47zM68.8 23l-1.275-3.6h-6.85L59.4 23h-4.15l6.675-17.725H66.5L73.1 23h-4.3zM64.15 9.675L61.975 15.8h4.3L64.15 9.675zm15.008 9.6h2.3c2.725 0 4.95-1.575 4.95-5.125S84.183 9 81.458 9h-2.3v10.275zM81.608 23h-6.4V5.275h6.425c5.325 0 8.9 3.4 8.9 8.875S86.958 23 81.608 23zm18.01-5.25L95.34 5.275h-4.35L97.492 23h4.075l6.475-17.725h-4.2L99.617 17.75zM121.4 23v-3.75h-7.3v-3.4h6.6v-3.475h-6.6V9h7.275V5.275H110.15V23h11.25zm11.783 0l-3.175-6.6h-1.4V23h-3.95V5.275h7.025c3.5 0 5.75 2.4 5.75 5.55 0 2.4-1.325 4.225-3.5 5l3.6 7.175h-4.35zm-4.575-10h2.325c1.625 0 2.5-.9 2.5-2.15 0-1.325-.875-2.15-2.5-2.15h-2.325V13zm25.11-3.95V5.275H138.84V9.05h5.45V23h3.95V9.05h5.475zM160.05 23V5.275h-4V23h4zm15.958-13.375c-.375-2.075-2.05-4.725-6.475-4.725-3.4 0-6.35 2.35-6.35 5.7 0 2.625 1.825 4.625 4.825 5.2l2.425.45c1.175.225 1.9.875 1.9 1.775 0 1.1-.95 1.85-2.5 1.85-2.425 0-3.525-1.425-3.675-3.05l-3.625.875c.25 2.5 2.35 5.675 7.25 5.675 4.225 0 6.55-2.825 6.55-5.6 0-2.525-1.75-4.7-5.125-5.325l-2.375-.45c-1.225-.225-1.75-.85-1.75-1.7 0-.975.95-1.9 2.425-1.9 2.15 0 2.825 1.4 2.95 2.225l3.55-1zm16.36-.575V5.275H177.49V9.05h5.45V23h3.95V9.05h5.475zM198.7 23V5.275h-4V23h4zm19.158 0V5.275h-3.95V16.05l-6.65-10.775h-4.8V23h3.925V11.35l7.3 11.65h4.175zm20.134 0v-9.475h-9.025v3.35h5.325c-.225 1-1.45 2.9-4.375 2.9-2.875 0-5.325-1.925-5.325-5.625 0-3.95 2.825-5.55 5.225-5.55 2.95 0 4.125 2 4.4 3.1l3.8-1.325c-.775-2.475-3.125-5.475-8.2-5.475-5 0-9.225 3.675-9.225 9.25 0 5.6 4.05 9.225 8.975 9.225 2.525 0 4.2-1.05 4.975-2.175l.25 1.8h3.2zM120.9 91v-6.625h6.55v-3.6h-6.575v-3.75h7.475v-3.75h-11.425V91h3.975zm14.158 0V73.275h-4V91h4zm19.16 0V73.275h-3.95V84.05l-6.65-10.775h-4.8V91h3.924V79.35l7.3 11.65h4.175zm15.632 0l-1.275-3.6h-6.85L160.45 91h-4.15l6.675-17.725h4.575L174.15 91h-4.3zm-4.65-13.325l-2.175 6.125h4.3l-2.125-6.125zM191.658 91V73.275h-3.95V84.05l-6.65-10.775h-4.8V91h3.925V79.35l7.3 11.65h4.175zm11.934.375c5.5 0 7.85-3.75 8.425-6.2l-3.775-1.075c-.35 1.275-1.575 3.325-4.65 3.325-2.65 0-5.1-1.925-5.1-5.25 0-3.725 2.675-5.425 5.05-5.425 3.125 0 4.25 2.075 4.525 3.3l3.725-1.175c-.575-2.55-2.925-5.975-8.25-5.975-4.95 0-9.15 3.75-9.15 9.275s4.1 9.2 9.2 9.2zM218.65 91V73.275h-4V91h4zm15.633 0l-1.275-3.6h-6.85l-1.275 3.6h-4.15l6.675-17.725h4.575l6.6 17.725h-4.3zm-4.65-13.325l-2.175 6.125h4.3l-2.125-6.125zM252.293 91v-3.775h-7.65v-13.95h-3.95V91h11.6zm20.765-13.375c-.375-2.075-2.05-4.725-6.475-4.725-3.4 0-6.35 2.35-6.35 5.7 0 2.625 1.825 4.625 4.825 5.2l2.425.45c1.175.225 1.9.875 1.9 1.775 0 1.1-.95 1.85-2.5 1.85-2.425 0-3.525-1.425-3.675-3.05l-3.625.875c.25 2.5 2.35 5.675 7.25 5.675 4.225 0 6.55-2.825 6.55-5.6 0-2.525-1.75-4.7-5.125-5.325l-2.375-.45c-1.225-.225-1.75-.85-1.75-1.7 0-.975.95-1.9 2.425-1.9 2.15 0 2.825 1.4 2.95 2.225l3.55-1zM287.268 91v-3.75h-7.3v-3.4h6.6v-3.475h-6.6V77h7.274v-3.725h-11.225V91h11.25zm11.782 0l-3.175-6.6h-1.4V91h-3.95V73.275h7.025c3.5 0 5.75 2.4 5.75 5.55 0 2.4-1.325 4.225-3.5 5L303.4 91h-4.35zm-4.575-10h2.325c1.625 0 2.5-.9 2.5-2.15 0-1.325-.875-2.15-2.5-2.15h-2.325V81zM-.9 125.375c5.5 0 7.85-3.75 8.425-6.2L3.75 118.1c-.35 1.275-1.575 3.325-4.65 3.325-2.65 0-5.1-1.925-5.1-5.25 0-3.725 2.675-5.425 5.05-5.425 3.125 0 4.25 2.075 4.525 3.3l3.725-1.175c-.575-2.55-2.925-5.975-8.25-5.975-4.95 0-9.15 3.75-9.15 9.275s4.1 9.2 9.2 9.2zm13.983-9.25c0 3.7 2.65 5.35 5.125 5.35 2.45 0 5.1-1.65 5.1-5.35 0-3.7-2.65-5.375-5.1-5.375-2.475 0-5.125 1.675-5.125 5.375zm-4.1.025c0-5.625 4.225-9.25 9.225-9.25 4.975 0 9.2 3.625 9.2 9.25 0 5.6-4.225 9.225-9.2 9.225-5 0-9.225-3.625-9.225-9.225zM45.567 125v-17.725h-3.95v10.775l-6.65-10.775h-4.8V125h3.925v-11.65l7.3 11.65h4.175zm17.183-13.95v-3.775H47.875v3.775h5.45V125h3.95v-13.95h5.475zM73.608 125l-3.175-6.6h-1.4v6.6h-3.95v-17.725h7.025c3.5 0 5.75 2.4 5.75 5.55 0 2.4-1.325 4.225-3.5 5l3.6 7.175h-4.35zm-4.575-10h2.325c1.625 0 2.5-.9 2.5-2.15 0-1.325-.875-2.15-2.5-2.15h-2.325v4.3zm23.534 10l-1.275-3.6h-6.85l-1.275 3.6h-4.15l6.675-17.725h4.575l6.6 17.725h-4.3zm-4.65-13.325l-2.175 6.125h4.3l-2.125-6.125zm18.258 13.7c5.5 0 7.85-3.75 8.425-6.2l-3.775-1.075c-.35 1.275-1.575 3.325-4.65 3.325-2.65 0-5.1-1.925-5.1-5.25 0-3.725 2.675-5.425 5.05-5.425 3.125 0 4.25 2.075 4.525 3.3l3.725-1.175c-.575-2.55-2.925-5.975-8.25-5.975-4.95 0-9.15 3.75-9.15 9.275s4.1 9.2 9.2 9.2zm24.233-14.325v-3.775h-14.875v3.775h5.45V125h3.95v-13.95h5.475zm5.01 5.075c0 3.7 2.65 5.35 5.124 5.35 2.45 0 5.1-1.65 5.1-5.35 0-3.7-2.65-5.375-5.1-5.375-2.475 0-5.125 1.675-5.125 5.375zm-4.1.025c0-5.625 4.224-9.25 9.224-9.25 4.975 0 9.2 3.625 9.2 9.25 0 5.6-4.225 9.225-9.2 9.225-5 0-9.225-3.625-9.225-9.225zm29.707 8.85l-3.175-6.6h-1.4v6.6h-3.95v-17.725h7.025c3.5 0 5.75 2.4 5.75 5.55 0 2.4-1.325 4.225-3.5 5l3.6 7.175h-4.35zm-4.575-10h2.325c1.625 0 2.5-.9 2.5-2.15 0-1.325-.875-2.15-2.5-2.15h-2.325v4.3zm23.883-3.375c-.375-2.075-2.05-4.725-6.475-4.725-3.4 0-6.35 2.35-6.35 5.7 0 2.625 1.825 4.625 4.825 5.2l2.425.45c1.175.225 1.9.875 1.9 1.775 0 1.1-.95 1.85-2.5 1.85-2.425 0-3.525-1.425-3.675-3.05l-3.625.875c.25 2.5 2.35 5.675 7.25 5.675 4.225 0 6.55-2.825 6.55-5.6 0-2.525-1.75-4.7-5.125-5.325l-2.375-.45c-1.225-.225-1.75-.85-1.75-1.7 0-.975.95-1.9 2.425-1.9 2.15 0 2.825 1.4 2.95 2.225l3.55-1zM208.1 125.375c5.5 0 7.85-3.75 8.425-6.2l-3.775-1.075c-.35 1.275-1.575 3.325-4.65 3.325-2.65 0-5.1-1.925-5.1-5.25 0-3.725 2.675-5.425 5.05-5.425 3.125 0 4.25 2.075 4.525 3.3l3.725-1.175c-.575-2.55-2.925-5.975-8.25-5.975-4.95 0-9.15 3.75-9.15 9.275s4.1 9.2 9.2 9.2zm22.083-.375l-1.275-3.6h-6.85l-1.275 3.6h-4.15l6.675-17.725h4.575l6.6 17.725h-4.3zm-4.65-13.325l-2.175 6.125h4.3l-2.125-6.125zm22.86-.625h-5.476V125h-3.95v-13.95h-5.45v-3.775h14.875v3.775zM261.974 125v-3.75h-7.3v-3.4h6.6v-3.475h-6.6V111h7.275v-3.725h-11.225V125h11.25zm11.783 0l-3.175-6.6h-1.4v6.6h-3.95v-17.725h7.025c3.5 0 5.75 2.4 5.75 5.55 0 2.4-1.325 4.225-3.5 5l3.6 7.175h-4.35zm-4.575-10h2.325c1.625 0 2.5-.9 2.5-2.15 0-1.325-.875-2.15-2.5-2.15h-2.325v4.3zm15.684 10v-17.725h-4V125h4zm19.158 0v-17.725h-3.95v10.775l-6.65-10.775h-4.8V125h3.925v-11.65l7.3 11.65h4.175zm20.133 0v-9.475h-9.025v3.35h5.325c-.225 1-1.45 2.9-4.375 2.9-2.875 0-5.325-1.925-5.325-5.625 0-3.95 2.825-5.55 5.225-5.55 2.95 0 4.125 2 4.4 3.1l3.8-1.325c-.775-2.475-3.125-5.475-8.2-5.475-5 0-9.225 3.675-9.225 9.25 0 5.6 4.05 9.225 8.975 9.225 2.525 0 4.2-1.05 4.975-2.175l.25 1.8h3.2zM15.35 77.05v-3.775H.475v3.775h5.45V91h3.95V77.05h5.475zM26.208 91l-3.175-6.6h-1.4V91h-3.95V73.275h7.025c3.5 0 5.75 2.4 5.75 5.55 0 2.4-1.325 4.225-3.5 5l3.6 7.175h-4.35zm-4.575-10h2.325c1.625 0 2.5-.9 2.5-2.15 0-1.325-.875-2.15-2.5-2.15h-2.325V81zm23.534 10l-1.275-3.6h-6.85L35.767 91h-4.15l6.675-17.725h4.575L49.467 91h-4.3zm-4.65-13.325L38.342 83.8h4.3l-2.125-6.125zm16.408 8.075l4.225-12.475h4.2L58.875 91H54.8l-6.5-17.725h4.35l4.275 12.475zM78.708 91v-3.75h-7.3v-3.4h6.6v-3.475h-6.6V77h7.275v-3.725H67.458V91h11.25zm14.86 0v-3.775h-7.65v-13.95h-3.95V91h11.6zM2.525 159v-3.775h-7.65v-13.95h-3.95V159h11.6zm13.733 0v-3.75h-7.3v-3.4h6.6v-3.475h-6.6V145h7.275v-3.725H5.008V159h11.25zm19.61 0v-9.475H26.84v3.35h5.325c-.225 1-1.45 2.9-4.375 2.9-2.875 0-5.325-1.925-5.325-5.625 0-3.95 2.825-5.55 5.225-5.55 2.95 0 4.125 2 4.4 3.1l3.8-1.325c-.775-2.475-3.125-5.475-8.2-5.475-5 0-9.225 3.675-9.225 9.25 0 5.6 4.05 9.225 8.975 9.225 2.525 0 4.2-1.05 4.975-2.175l.25 1.8h3.2zM51 159l-1.275-3.6h-6.85L41.6 159h-4.15l6.675-17.725H48.7L55.3 159H51zm-4.65-13.325l-2.175 6.125h4.3l-2.125-6.125zM69.008 159v-3.775h-7.65v-13.95h-3.95V159h11.6zM6.1 193.375c5.5 0 7.85-3.75 8.425-6.2L10.75 186.1c-.35 1.275-1.575 3.325-4.65 3.325-2.65 0-5.1-1.925-5.1-5.25 0-3.725 2.675-5.425 5.05-5.425 3.125 0 4.25 2.075 4.525 3.3l3.725-1.175c-.575-2.55-2.925-5.975-8.25-5.975-4.95 0-9.15 3.75-9.15 9.275s4.1 9.2 9.2 9.2zm13.983-9.25c0 3.7 2.65 5.35 5.125 5.35 2.45 0 5.1-1.65 5.1-5.35 0-3.7-2.65-5.375-5.1-5.375-2.475 0-5.125 1.675-5.125 5.375zm-4.1.025c0-5.625 4.225-9.25 9.225-9.25 4.975 0 9.2 3.625 9.2 9.25 0 5.6-4.225 9.225-9.2 9.225-5 0-9.225-3.625-9.225-9.225zM52.567 193v-17.725h-3.95v10.775l-6.65-10.775h-4.8V193h3.925v-11.65l7.3 11.65h4.175zm15.958-13.375c-.375-2.075-2.05-4.725-6.475-4.725-3.4 0-6.35 2.35-6.35 5.7 0 2.625 1.825 4.625 4.825 5.2l2.425.45c1.175.225 1.9.875 1.9 1.775 0 1.1-.95 1.85-2.5 1.85-2.425 0-3.525-1.425-3.675-3.05l-3.625.875c.25 2.5 2.35 5.675 7.25 5.675 4.225 0 6.55-2.825 6.55-5.6 0-2.525-1.75-4.7-5.125-5.325L61.35 182c-1.225-.225-1.75-.85-1.75-1.7 0-.975.95-1.9 2.425-1.9 2.15 0 2.825 1.4 2.95 2.225l3.55-1zm9.808 13.775c3.9 0 7.025-2.35 7.025-6.8v-11.325h-3.95v11c0 2.15-1.2 3.225-3.075 3.225-1.875 0-3.075-1.075-3.075-3.225v-11h-3.95V186.6c0 4.45 3.125 6.8 7.025 6.8zm22.26-.4h-11.6v-17.725h3.95v13.95h7.65V193zm14.157-13.95h-5.475V193h-3.95v-13.95h-5.45v-3.775h14.875v3.775zm6.333 13.95v-17.725h-4V193h4zm19.16 0v-17.725h-3.95v10.775l-6.65-10.775h-4.8V193h3.924v-11.65l7.3 11.65h4.175zm20.132 0v-9.475h-9.025v3.35h5.325c-.225 1-1.45 2.9-4.375 2.9-2.875 0-5.325-1.925-5.325-5.625 0-3.95 2.825-5.55 5.225-5.55 2.95 0 4.125 2 4.4 3.1l3.8-1.325c-.775-2.475-3.125-5.475-8.2-5.475-5 0-9.225 3.675-9.225 9.25 0 5.6 4.05 9.225 8.975 9.225 2.525 0 4.2-1.05 4.975-2.175l.25 1.8h3.2zM190.8 193l-1.275-3.6h-6.85L181.4 193h-4.15l6.675-17.725h4.575L195.1 193h-4.3zm-4.65-13.325l-2.175 6.125h4.3l-2.125-6.125zm17.333 13.725c3.9 0 7.025-2.35 7.025-6.8v-11.325h-3.95v11c0 2.15-1.2 3.225-3.075 3.225-1.875 0-3.075-1.075-3.075-3.225v-11h-3.95V186.6c0 4.45 3.125 6.8 7.025 6.8zm24.21-14.35v-3.775h-14.876v3.775h5.45V193h3.95v-13.95h5.475zm5.007 5.075c0 3.7 2.65 5.35 5.125 5.35 2.45 0 5.1-1.65 5.1-5.35 0-3.7-2.65-5.375-5.1-5.375-2.475 0-5.125 1.675-5.125 5.375zm-4.1.025c0-5.625 4.225-9.25 9.225-9.25 4.975 0 9.2 3.625 9.2 9.25 0 5.6-4.225 9.225-9.2 9.225-5 0-9.225-3.625-9.225-9.225zm41.258 8.85v-17.725h-5.425l-4.625 11.975-4.875-11.975h-5.15V193h3.75v-11.6l4.625 11.6h3.2l4.625-11.75V193h3.875zm6.86-8.875c0 3.7 2.65 5.35 5.124 5.35 2.45 0 5.1-1.65 5.1-5.35 0-3.7-2.65-5.375-5.1-5.375-2.475 0-5.125 1.675-5.125 5.375zm-4.1.025c0-5.625 4.224-9.25 9.224-9.25 4.975 0 9.2 3.625 9.2 9.25 0 5.6-4.225 9.225-9.2 9.225-5 0-9.225-3.625-9.225-9.225zm34.207-5.1v-3.775H291.95v3.775h5.45V193h3.95v-13.95h5.475zm6.333 13.95v-17.725h-4V193h4zM27.525 227v-3.775h-7.65v-13.95h-3.95V227h11.6zm14.408 0l-1.275-3.6h-6.85l-1.275 3.6h-4.15l6.675-17.725h4.575l6.6 17.725h-4.3zm-4.65-13.325l-2.175 6.125h4.3l-2.125-6.125zM63.743 227v-17.725h-3.95v10.775l-6.65-10.775h-4.8V227h3.924v-11.65l7.3 11.65h4.175zm7.707-3.725h2.3c2.725 0 4.95-1.575 4.95-5.125S76.475 213 73.75 213h-2.3v10.275zM73.9 227h-6.4v-17.725h6.425c5.325 0 8.9 3.4 8.9 8.875S79.25 227 73.9 227zm23.858-13.375c-.375-2.075-2.05-4.725-6.475-4.725-3.4 0-6.35 2.35-6.35 5.7 0 2.625 1.825 4.625 4.825 5.2l2.425.45c1.175.225 1.9.875 1.9 1.775 0 1.1-.95 1.85-2.5 1.85-2.425 0-3.525-1.425-3.675-3.05l-3.625.875c.25 2.5 2.35 5.675 7.25 5.675 4.225 0 6.55-2.825 6.55-5.6 0-2.525-1.75-4.7-5.125-5.325l-2.375-.45c-1.225-.225-1.75-.85-1.75-1.7 0-.975.95-1.9 2.425-1.9 2.15 0 2.825 1.4 2.95 2.225l3.55-1zm11.11 13.75c5.5 0 7.85-3.75 8.424-6.2l-3.775-1.075c-.35 1.275-1.575 3.325-4.65 3.325-2.65 0-5.1-1.925-5.1-5.25 0-3.725 2.675-5.425 5.05-5.425 3.125 0 4.25 2.075 4.525 3.3l3.725-1.175c-.575-2.55-2.925-5.975-8.25-5.975-4.95 0-9.15 3.75-9.15 9.275s4.1 9.2 9.2 9.2zM130.95 227l-1.275-3.6h-6.85l-1.275 3.6h-4.15l6.675-17.725h4.575l6.6 17.725h-4.3zm-4.65-13.325l-2.175 6.125h4.3l-2.125-6.125zm15.033 3.55h2.3c1.5 0 2.525-.875 2.525-2.25 0-1.425-1.025-2.275-2.525-2.275h-2.3v4.525zm2.7 3.4h-2.725V227h-3.95v-17.725h6.675c3.6 0 6.075 2.375 6.075 5.675 0 3.35-2.475 5.675-6.075 5.675zm12.46 6.375v-17.725h-4V227h4zm19.157 0v-17.725h-3.95v10.775l-6.65-10.775h-4.8V227h3.925v-11.65l7.3 11.65h4.175zm20.133 0v-9.475h-9.025v3.35h5.325c-.225 1-1.45 2.9-4.375 2.9-2.875 0-5.325-1.925-5.325-5.625 0-3.95 2.825-5.55 5.225-5.55 2.95 0 4.125 2 4.4 3.1l3.8-1.325c-.775-2.475-3.125-5.475-8.2-5.475-5 0-9.225 3.675-9.225 9.25 0 5.6 4.05 9.225 8.975 9.225 2.525 0 4.2-1.05 4.975-2.175l.25 1.8h3.2zm19.792 0l-1.6-1.725c-1.225 1.25-2.775 2.075-4.65 2.075-3.5 0-5.475-2.425-5.475-4.875 0-2.175 1.125-3.45 3.025-4.825l-.25-.275c-.85-.925-1.85-2.2-1.85-3.8 0-3.025 2.55-4.7 5.025-4.7 2.925 0 5.075 1.875 5.075 4.55 0 1.775-1.2 3.15-2.5 4.1l-.575.425 2.375 2.5 4.725-4.825v4.65l-2.5 2.525 3.975 4.2h-4.8zm-6.15-2.9c.875 0 1.625-.425 2.35-1.175l-2.75-2.95-.125.1c-.825.6-1.375 1.225-1.375 2.2 0 .925.75 1.825 1.9 1.825zm-1.125-10.65c0 .7.475 1.275.9 1.725l.425.45.7-.5c.725-.525 1.025-1.125 1.025-1.7 0-.85-.675-1.5-1.55-1.5-.75 0-1.5.475-1.5 1.525zM238.917 227v-3.775h-7.65v-13.95h-3.95V227h11.6zm14.408 0l-1.275-3.6h-6.85l-1.275 3.6h-4.15l6.675-17.725h4.575l6.6 17.725h-4.3zm-4.65-13.325L246.5 219.8h4.3l-2.125-6.125zm26.908 6.975l2.875-11.375h4.05L277.683 227h-4.075l-3.775-11.75-3.8 11.75h-4.15l-4.825-17.725h4.2l2.925 11.35 3.675-11.35h4.05l3.675 11.375zm24.434 6.35v-17.725h-3.95v10.775l-6.65-10.775h-4.8V227h3.925v-11.65l7.3 11.65h4.175zM42.9 251.225h2.3c1.5 0 2.525-.875 2.525-2.25 0-1.425-1.025-2.275-2.525-2.275h-2.3v4.525zm2.7 3.4h-2.725V261h-3.95v-17.725H45.6c3.6 0 6.075 2.375 6.075 5.675 0 3.35-2.475 5.675-6.075 5.675zM62.583 261l-3.175-6.6h-1.4v6.6h-3.95v-17.725h7.025c3.5 0 5.75 2.4 5.75 5.55 0 2.4-1.325 4.225-3.5 5l3.6 7.175h-4.35zm-4.575-10h2.325c1.625 0 2.5-.9 2.5-2.15 0-1.325-.875-2.15-2.5-2.15h-2.325v4.3zm14.634 1.125c0 3.7 2.65 5.35 5.125 5.35 2.45 0 5.1-1.65 5.1-5.35 0-3.7-2.65-5.375-5.1-5.375-2.475 0-5.125 1.675-5.125 5.375zm-4.1.025c0-5.625 4.225-9.25 9.225-9.25 4.975 0 9.2 3.625 9.2 9.25 0 5.6-4.225 9.225-9.2 9.225-5 0-9.225-3.625-9.225-9.225zm25.158-.925H96c1.5 0 2.525-.875 2.525-2.25 0-1.425-1.025-2.275-2.525-2.275h-2.3v4.525zm2.7 3.4h-2.725V261h-3.95v-17.725H96.4c3.6 0 6.075 2.375 6.075 5.675 0 3.35-2.475 5.675-6.075 5.675zM116.108 261v-3.75h-7.3v-3.4h6.6v-3.475h-6.6V247h7.275v-3.725h-11.225V261h11.25zm11.784 0l-3.175-6.6h-1.4v6.6h-3.95v-17.725h7.025c3.5 0 5.75 2.4 5.75 5.55 0 2.4-1.325 4.225-3.5 5l3.6 7.175h-4.35zm-4.575-10h2.325c1.625 0 2.5-.9 2.5-2.15 0-1.325-.875-2.15-2.5-2.15h-2.325v4.3zm25.108-3.95v-3.775H133.55v3.775H139V261h3.95v-13.95h5.475zm7.308 6.55v7.4h3.95v-7.4l6.225-10.325h-4.4l-3.675 6.575-3.625-6.575h-4.625l6.15 10.325zM195.175 261v-3.75h-7.3v-3.4h6.6v-3.475h-6.6V247h7.275v-3.725h-11.225V261h11.25zm14.858 0v-3.775h-7.65v-13.95h-3.95V261h11.6zm13.734 0v-3.75h-7.3v-3.4h6.6v-3.475h-6.6V247h7.275v-3.725h-11.225V261h11.25zm11.408.375c5.5 0 7.85-3.75 8.425-6.2l-3.775-1.075c-.35 1.275-1.575 3.325-4.65 3.325-2.65 0-5.1-1.925-5.1-5.25 0-3.725 2.675-5.425 5.05-5.425 3.125 0 4.25 2.075 4.525 3.3l3.725-1.175c-.575-2.55-2.925-5.975-8.25-5.975-4.95 0-9.15 3.75-9.15 9.275s4.1 9.2 9.2 9.2zm24.233-14.325v-3.775h-14.875v3.775h5.45V261h3.95v-13.95h5.475zm10.86 13.95l-3.176-6.6h-1.4v6.6h-3.95v-17.725h7.025c3.5 0 5.75 2.4 5.75 5.55 0 2.4-1.325 4.225-3.5 5l3.6 7.175h-4.35zm-4.576-10h2.325c1.625 0 2.5-.9 2.5-2.15 0-1.325-.875-2.15-2.5-2.15h-2.325v4.3zM94.925 295v-17.725H90.95v6.95h-7.075v-6.95h-3.95V295h3.95v-7.05h7.075V295h3.975zm15.633 0l-1.275-3.6h-6.85l-1.275 3.6h-4.15l6.675-17.725h4.575l6.6 17.725h-4.3zm-4.65-13.325l-2.175 6.125h4.3l-2.125-6.125zM132.368 295v-17.725h-3.95v10.775l-6.65-10.775h-4.8V295h3.924v-11.65l7.3 11.65h4.175zm7.707-3.725h2.3c2.725 0 4.95-1.575 4.95-5.125s-2.225-5.15-4.95-5.15h-2.3v10.275zm2.45 3.725h-6.4v-17.725h6.425c5.325 0 8.9 3.4 8.9 8.875s-3.575 8.85-8.925 8.85zm14.908-7.4l-6.15-10.325h4.625l3.625 6.575 3.675-6.575h4.4l-6.225 10.325v7.4h-3.95v-7.4zm32.36 7.4v-17.725h-5.426l-4.625 11.975-4.875-11.975h-5.15V295h3.75v-11.6l4.625 11.6h3.2l4.625-11.75V295h3.875zm15.657 0l-1.275-3.6h-6.85l-1.275 3.6h-4.15l6.675-17.725h4.575l6.6 17.725h-4.3zm-4.65-13.325l-2.175 6.125h4.3l-2.125-6.125zM227.258 295v-17.725h-3.95v10.775l-6.65-10.775h-4.8V295h3.925v-11.65l7.3 11.65h4.175zM99.8 159l-1.275-3.6h-6.85L90.4 159h-4.15l6.675-17.725H97.5L104.1 159h-4.3zm-4.65-13.325l-2.175 6.125h4.3l-2.125-6.125zm18.258 13.7c5.5 0 7.85-3.75 8.425-6.2l-3.775-1.075c-.35 1.275-1.575 3.325-4.65 3.325-2.65 0-5.1-1.925-5.1-5.25 0-3.725 2.675-5.425 5.05-5.425 3.125 0 4.25 2.075 4.525 3.3l3.725-1.175c-.575-2.55-2.925-5.975-8.25-5.975-4.95 0-9.15 3.75-9.15 9.275s4.1 9.2 9.2 9.2zm19.084 0c5.5 0 7.85-3.75 8.425-6.2l-3.775-1.075c-.35 1.275-1.575 3.325-4.65 3.325-2.65 0-5.1-1.925-5.1-5.25 0-3.725 2.675-5.425 5.05-5.425 3.125 0 4.25 2.075 4.525 3.3l3.725-1.175c-.575-2.55-2.925-5.975-8.25-5.975-4.95 0-9.15 3.75-9.15 9.275s4.1 9.2 9.2 9.2zm13.983-9.25c0 3.7 2.65 5.35 5.125 5.35 2.45 0 5.1-1.65 5.1-5.35 0-3.7-2.65-5.375-5.1-5.375-2.475 0-5.125 1.675-5.125 5.375zm-4.1.025c0-5.625 4.225-9.25 9.225-9.25 4.975 0 9.2 3.625 9.2 9.25 0 5.6-4.225 9.225-9.2 9.225-5 0-9.225-3.625-9.225-9.225zm28.058 9.25c3.9 0 7.025-2.35 7.025-6.8v-11.325h-3.95v11c0 2.15-1.2 3.225-3.075 3.225-1.875 0-3.075-1.075-3.075-3.225v-11h-3.95V152.6c0 4.45 3.125 6.8 7.025 6.8zm26.06-.4v-17.725h-3.95v10.775l-6.65-10.775h-4.8V159h3.924v-11.65l7.3 11.65h4.175zm17.182-13.95v-3.775H198.8v3.775h5.45V159h3.95v-13.95h5.475zm6.333 13.95v-17.725h-4V159h4zm19.16 0v-17.725h-3.95v10.775l-6.65-10.775h-4.8V159h3.924v-11.65l7.3 11.65h4.175zm20.132 0v-9.475h-9.025v3.35h5.325c-.225 1-1.45 2.9-4.375 2.9-2.875 0-5.325-1.925-5.325-5.625 0-3.95 2.825-5.55 5.225-5.55 2.95 0 4.125 2 4.4 3.1l3.8-1.325c-.775-2.475-3.125-5.475-8.2-5.475-5 0-9.225 3.675-9.225 9.25 0 5.6 4.05 9.225 8.975 9.225 2.525 0 4.2-1.05 4.975-2.175l.25 1.8h3.2zm21.542-13.375c-.375-2.075-2.05-4.725-6.475-4.725-3.4 0-6.35 2.35-6.35 5.7 0 2.625 1.825 4.625 4.825 5.2l2.425.45c1.175.225 1.9.875 1.9 1.775 0 1.1-.95 1.85-2.5 1.85-2.425 0-3.525-1.425-3.675-3.05l-3.625.875c.25 2.5 2.35 5.675 7.25 5.675 4.225 0 6.55-2.825 6.55-5.6 0-2.525-1.75-4.7-5.125-5.325l-2.375-.45c-1.225-.225-1.75-.85-1.75-1.7 0-.975.95-1.9 2.425-1.9 2.15 0 2.825 1.4 2.95 2.225l3.55-1zM295.05 159v-3.75h-7.3v-3.4h6.6v-3.475h-6.6V145h7.275v-3.725H283.8V159h11.25zm11.783 0l-3.175-6.6h-1.4v6.6h-3.95v-17.725h7.025c3.5 0 5.75 2.4 5.75 5.55 0 2.4-1.325 4.225-3.5 5l3.6 7.175h-4.35zm-4.575-10h2.325c1.625 0 2.5-.9 2.5-2.15 0-1.325-.875-2.15-2.5-2.15h-2.325v4.3z" fill="#065466" opacity=".159" mask="url(#d)"/></g></g></svg>