<?xml version="1.0" encoding="UTF-8"?>
<svg width="742px" height="87px" viewBox="0 0 742 87" version="1.1" xmlns="http://www.w3.org/2000/svg" xmlns:xlink="http://www.w3.org/1999/xlink">
    <!-- Generator: Sketch 41.2 (35397) - http://www.bohemiancoding.com/sketch -->
    <title>Artboard 2</title>
    <desc>Created with Sketch.</desc>
    <defs>
        <path d="M42,84 C54.9015388,84 84,84 84,84 L84,42 C84,18.8040405 65.1959595,0 42,0 C18.8040405,0 0,18.8040405 0,42 C0,65.1959595 18.8040405,84 42,84 Z" id="path-1"></path>
        <filter x="-50%" y="-50%" width="200%" height="200%" filterUnits="objectBoundingBox" id="filter-2">
            <feMorphology radius="1.5" operator="dilate" in="SourceAlpha" result="shadowSpreadOuter1"></feMorphology>
            <feOffset dx="0" dy="7" in="shadowSpreadOuter1" result="shadowOffsetOuter1"></feOffset>
            <feGaussianBlur stdDeviation="5" in="shadowOffsetOuter1" result="shadowBlurOuter1"></feGaussianBlur>
            <feComposite in="shadowBlurOuter1" in2="SourceAlpha" operator="out" result="shadowBlurOuter1"></feComposite>
            <feColorMatrix values="0 0 0 0 0   0 0 0 0 0   0 0 0 0 0  0 0 0 0.0602638134 0" type="matrix" in="shadowBlurOuter1"></feColorMatrix>
        </filter>
        <path d="M42,84 C54.9015388,84 84,84 84,84 L84,42 C84,18.8040405 65.1959595,0 42,0 C18.8040405,0 0,18.8040405 0,42 C0,65.1959595 18.8040405,84 42,84 Z" id="path-3"></path>
        <filter x="-50%" y="-50%" width="200%" height="200%" filterUnits="objectBoundingBox" id="filter-4">
            <feMorphology radius="1.5" operator="dilate" in="SourceAlpha" result="shadowSpreadOuter1"></feMorphology>
            <feOffset dx="0" dy="7" in="shadowSpreadOuter1" result="shadowOffsetOuter1"></feOffset>
            <feGaussianBlur stdDeviation="5" in="shadowOffsetOuter1" result="shadowBlurOuter1"></feGaussianBlur>
            <feComposite in="shadowBlurOuter1" in2="SourceAlpha" operator="out" result="shadowBlurOuter1"></feComposite>
            <feColorMatrix values="0 0 0 0 0   0 0 0 0 0   0 0 0 0 0  0 0 0 0.0602638134 0" type="matrix" in="shadowBlurOuter1"></feColorMatrix>
        </filter>
    </defs>
    <g id="Page-1" stroke="none" stroke-width="1" fill="none" fill-rule="evenodd">
        <g id="Artboard-2">
            <g id="Group-12">
                <g id="Group-4">
                    <g id="Oval-2">
                        <use fill="black" fill-opacity="1" filter="url(#filter-2)" xlink:href="#path-1"></use>
                        <use stroke="#46DEB0" stroke-width="3" fill-opacity="0.34" fill="#FFFFFF" fill-rule="evenodd" xlink:href="#path-1"></use>
                    </g>
                    <path d="M60.866077,54.9453034 L57.407353,28.0394691 C57.4042775,28.0179405 57.4005869,27.9964119 57.3968963,27.9754984 C56.1568487,21.3256201 49.0179635,15.9157895 41.4841823,15.9157895 C33.8206143,15.9157895 26.6602006,21.4461803 25.5161091,28.2879707 L22.1145896,54.9465336 C22.0659965,55.3260522 22.2093155,55.7049556 22.4971837,55.958378 C22.7844368,56.2111854 23.1781027,56.3040659 23.5490098,56.2087249 L30.5402702,54.3904805 L40.6722464,66.7048421 C40.891223,66.9711817 41.2172276,67.1255725 41.5623004,67.1255725 L41.5635306,67.1255725 C41.9073731,67.1255725 42.2339928,66.9717968 42.4523544,66.7066874 L52.5874061,54.4280018 L59.4328871,56.2087249 C59.527613,56.2339442 59.6247992,56.2462462 59.7226006,56.2462462 C60.000012,56.2462462 60.2718876,56.1459844 60.4853283,55.9577629 C60.7725814,55.7049556 60.9152853,55.3254371 60.866077,54.9453034 Z M41.5641457,64.159546 L32.9010354,53.6302133 C34.0586592,53.0206462 35.2630308,51.9306838 35.9064285,50.1721043 C37.6816157,51.4804284 39.6517905,52.1810307 41.6693283,52.1810307 C43.6634921,52.1810307 45.5223333,51.4939606 47.1523562,50.3590957 C47.8351205,52.0678517 49.0542546,53.1141419 50.2063425,53.6911085 L41.5641457,64.159546 Z M51.2323342,34.6936531 C51.2421759,34.9286224 51.2514024,37.4653071 51.2514024,37.8479011 C51.2514024,43.294638 46.9770519,49.8737794 41.6693283,49.8737794 C37.3439242,49.8737794 32.2188862,44.7093748 32.0940203,38.0717986 L32.0884844,30.5466288 L36.2435049,26.4758773 C41.3371727,30.9015432 48.4379214,31.6421272 51.231104,31.7571515 L51.231104,34.6376787 C51.231104,34.6530563 51.2323342,34.6788906 51.2323342,34.6936531 Z M52.3493612,51.9829675 C52.31184,51.973741 52.264477,51.9645144 52.2269557,51.9583634 C51.9323214,51.9128458 49.6515196,51.4650508 49.0536395,48.7315332 C51.816067,45.8768403 53.5580386,41.6836833 53.5580386,37.8485162 C53.5580386,37.8208366 53.5512725,35.0737867 53.5377402,34.6186105 L53.5377402,30.6210563 C53.5377402,30.3091991 53.411029,30.010259 53.1877466,29.7931277 C52.9638491,29.5753812 52.6501466,29.4523606 52.3499763,29.4677382 C52.3401347,29.4683533 52.2614015,29.4701986 52.1230033,29.4701986 C50.5065127,29.4701986 42.1829393,29.2100101 37.0388331,24.066519 C36.5922683,23.618724 35.8682921,23.6168787 35.4161914,24.0579076 L30.1281512,29.2389199 C29.9067141,29.4560513 29.7818482,29.7525309 29.7818482,30.0625428 L29.7873841,38.0964027 C29.8495095,41.3798224 31.1086253,44.8280897 33.2436477,47.5560714 C33.4823077,47.8605474 33.7295791,48.1484156 33.9811562,48.4245968 C33.4915342,51.4281446 31.0606473,51.9110005 30.7635525,51.9577483 C30.7192651,51.9638993 30.6749777,51.9718957 30.6319205,51.9835826 L24.6186738,53.5477895 L27.7981411,28.6250471 C28.7417091,22.9863982 35.0096084,18.2230407 41.4847974,18.2230407 C47.8400413,18.2230407 54.0778006,22.8652229 55.1240908,28.3667039 L58.3619928,53.5471744 L52.3493612,51.9829675 Z" id="Shape" stroke="#46DEB0" stroke-width="0.5" fill="#46DEB0"></path>
                </g>
            </g>
            <g id="Group-13" transform="translate(122.000000, 0.000000)">
                <g id="Oval-2-Copy">
                    <use fill="black" fill-opacity="1" filter="url(#filter-4)" xlink:href="#path-3"></use>
                    <use stroke="#E69932" stroke-width="3" fill-opacity="0.332484149" fill="#FFFFFF" fill-rule="evenodd" xlink:href="#path-3"></use>
                </g>
                <path d="M51.8676333,51.5118471 C53.8055792,49.1015997 54.9746625,45.998003 54.9746625,42.6115745 C54.9746625,42.41524 54.9664247,42.2209648 54.9588733,42.0266897 C56.8714194,39.3336107 58,36.0467226 58,32.4989703 C57.9993135,23.4016767 50.5969503,16 41.4996568,16 C32.4016767,16 25,23.4016767 25,32.4996568 C25,36.2869922 26.2864721,39.7777662 28.4399742,42.5648936 L28.4399742,42.8648874 C28.4399742,42.9191196 28.4427201,42.9719789 28.4502715,43.0241518 C28.538828,46.1778619 29.6598573,49.0734538 31.4618793,51.3669988 L27.6203116,55.0582264 C27.1095671,55.5483764 27.091032,56.3584282 27.5777496,56.8719186 L35.6727757,65.4124732 C35.9137318,65.665786 36.2459903,65.8106343 36.5960974,65.8140667 L36.6077677,65.8140667 C36.9530694,65.8140667 37.283955,65.6753968 37.526284,65.4282624 L41.5902727,61.2894469 L45.6528884,65.4282624 C45.8952175,65.6747103 46.2254166,65.8140667 46.5714048,65.8140667 L46.583075,65.8140667 C46.9324957,65.8106343 47.2661272,65.665786 47.5063968,65.4124732 L55.6000499,56.8719186 C56.0867675,56.3584282 56.0675459,55.5483764 55.5574879,55.0582264 L51.8676333,51.5118471 Z M28.4399742,31.7877723 L28.4399742,37.3242704 C27.8811758,35.8208691 27.5743172,34.1952737 27.5743172,32.4996568 C27.5743172,24.8206403 33.8213268,18.5743172 41.4996568,18.5743172 C49.1779867,18.5743172 55.4249964,24.8213268 55.4249964,32.4996568 C55.4249964,33.7415074 55.2602401,34.9442283 54.952695,36.0892846 L54.952695,32.4111002 C54.952695,32.0630526 54.8112791,31.7301075 54.5620852,31.4877785 C54.3128913,31.2454494 53.9758274,31.1095255 53.6270933,31.1246282 C53.6161095,31.1253146 53.5282395,31.1273741 53.3737804,31.1273741 C51.569699,31.1273741 42.2801897,30.8363046 36.5391192,25.0959206 C36.0400449,24.5961598 35.2320526,24.5927274 34.7281729,25.0863098 L28.826465,30.8685694 C28.5786441,31.110212 28.4399742,31.441784 28.4399742,31.7877723 Z M31.0197832,42.8401739 C31.0190968,42.8037902 31.0170373,42.7687795 31.0136049,42.7344553 L31.0136049,32.3287221 L35.6508082,27.7848807 C41.3355869,32.7248237 49.2610514,33.5520376 52.3783778,33.6797237 L52.3783778,41.8756631 C52.3783778,41.8990036 52.3783778,41.9216575 52.3811238,41.944998 C52.3921075,42.1660461 52.3996588,42.3884671 52.3996588,42.612261 C52.3996588,48.8352437 47.6031911,53.8980674 41.7069751,53.8980674 C35.9288344,53.8980674 31.1344262,48.9375299 31.0197832,42.8401739 Z M36.6228703,62.6733998 L30.3243744,56.0282291 L33.0490316,53.4106634 L39.5788729,59.6617919 L36.6228703,62.6733998 Z M41.5895862,58.0224668 L39.819829,56.3282228 C40.4369786,56.4229577 41.0671715,56.4723846 41.7076616,56.4723846 C42.2534168,56.4723846 42.7895613,56.4339415 43.3181544,56.3673525 L41.5895862,58.0224668 Z M46.5542427,62.6733998 L43.5975536,59.6617919 L50.1273949,53.4106634 L52.8520522,56.0282291 L46.5542427,62.6733998 Z" id="Shape-Copy" stroke="#E69932" stroke-width="0.25" fill="#E69932"></path>
            </g>
            <ellipse id="Oval" fill="#0FBBEF" cx="461.5" cy="43.5" rx="43.5" ry="43.5"></ellipse>
            <path d="M462,64 C461.47625,64 460.9525,63.90375 460.47375,63.71 L443.8375,56.9525 C442.705,56.49375 442,55.55625 442,54.50375 L442,33.495 C442,32.445 442.70375,31.5075 443.8375,31.0475 L460.47125,24.2925 C461.42875,23.9025 462.57125,23.9025 463.5275,24.2925 L480.16125,31.0475 C481.29625,31.5075 482,32.44625 482,33.495 L482,54.50375 C482,55.555 481.29625,56.49375 480.16,56.9525 L463.5275,63.70875 C463.04875,63.9025 462.52375,64 462,64 Z M444.5075,54.495 L444.7775,54.635 L461.41375,61.39125 C461.765,61.5325 462.2375,61.5325 462.59,61.39125 L479.2225,54.635 L479.22375,54.635 C479.41625,54.5575 479.5,54.465 479.5125,54.44 L479.5,33.495 L479.22,33.3625 L462.5875,26.6075 C462.23625,26.46625 461.765,26.465 461.41375,26.6075 L444.77875,33.3625 C444.585,33.4425 444.50125,33.53375 444.4875,33.56 L444.5,54.50375 L444.5075,54.495 L444.5075,54.495 Z M462,64 C461.31,64 460.75,63.44125 460.75,62.75 L460.75,41.09625 L443.5075,34.2 C442.86625,33.9425 442.555,33.21625 442.81125,32.575 C443.0675,31.93375 443.7925,31.6225 444.43625,31.87875 L462.465,39.09 C462.93875,39.27875 463.25,39.73875 463.25,40.25 L463.25,62.75 C463.25,63.44125 462.69,64 462,64 Z M462,41.5 C461.50375,41.5 461.035,41.2025 460.83875,40.71375 C460.5825,40.0725 460.89375,39.345 461.535,39.08875 L479.56375,31.8775 C480.19875,31.625 480.9325,31.9325 481.18875,32.57375 C481.445,33.215 481.1325,33.9425 480.49125,34.19875 L462.46375,41.41 C462.3125,41.47125 462.155,41.5 462,41.5 L462,41.5 Z M468.25,46.5 C467.755,46.5 467.285,46.20375 467.08875,45.71375 C466.8325,45.0725 467.145,44.34625 467.78625,44.08875 L473.315,41.8775 C473.95,41.625 474.68375,41.9325 474.94,42.57375 C475.19625,43.215 474.88375,43.9425 474.2425,44.19875 L468.71375,46.41 C468.5625,46.4725 468.405,46.5 468.25,46.5 L468.25,46.5 Z" id="Shape" fill="#FFFFFF"></path>
            <ellipse id="Oval-Copy" fill="#46DEB0" cx="580.5" cy="43.5" rx="43.5" ry="43.5"></ellipse>
            <path d="M579.501908,53.0203236 C578.670311,53.0203236 577.838714,52.8396531 577.064778,52.4783121 L559.73963,44.3929865 C559.098954,44.0944317 558.820901,43.3307465 559.120737,42.6900709 C559.419292,42.0493954 560.181696,41.7726235 560.823653,42.0711783 L578.148801,50.1565038 C579.009869,50.5562854 579.995228,50.5562854 580.856296,50.1565038 L598.181445,42.0711783 C598.823402,41.7713422 599.584524,42.0493954 599.88436,42.6900709 C600.182915,43.3307465 599.907425,44.0944317 599.265468,44.3929865 L581.940319,52.4783121 C581.165102,52.8396531 580.333505,53.0203236 579.501908,53.0203236 L579.501908,53.0203236 Z M593.59677,46.6122867 C592.888183,46.6122867 592.315419,46.0395227 592.315419,45.3309356 L592.315419,31.2335106 C592.315419,30.5274862 591.742655,29.9547222 591.036631,29.9547222 L567.967185,29.9547222 C567.261161,29.9547222 566.688397,30.5274862 566.688397,31.2335106 L566.688397,45.3309356 C566.688397,46.0395227 566.114352,46.6122867 565.407046,46.6122867 C564.69974,46.6122867 564.125695,46.0395227 564.125695,45.3309356 L564.125695,31.2335106 C564.125695,29.1154373 565.849112,27.39202 567.967185,27.39202 L591.036631,27.39202 C593.154704,27.39202 594.878121,29.1154373 594.878121,31.2335106 L594.878121,45.3309356 C594.878121,46.0395227 594.305358,46.6122867 593.59677,46.6122867 Z M585.266707,26.1106689 C585.05144,26.1106689 584.832329,26.0568522 584.632438,25.9415306 L581.259922,24.0143785 C580.189994,23.403174 578.812541,23.403174 577.743894,24.0143785 L574.371378,25.9415306 C573.75633,26.2939021 572.974706,26.0799165 572.623615,25.4648679 C572.272525,24.8511008 572.486511,24.0681952 573.100278,23.717105 L576.472794,21.789953 C578.311533,20.7366823 580.689721,20.7366823 582.532304,21.789953 L585.90482,23.717105 C586.518587,24.0681952 586.732572,24.8511008 586.381482,25.4648679 C586.144432,25.8787444 585.712617,26.1106689 585.266707,26.1106689 L585.266707,26.1106689 Z M596.154347,61.9885 L562.849469,61.9885 C560.727552,61.9885 559.00029,60.2612387 559.00029,58.1393213 L559.00029,34.0076358 C559.00029,32.6404342 559.735786,31.3654898 560.921036,30.6786856 C561.533522,30.3237514 562.317708,30.5338929 562.671361,31.1450974 C563.026296,31.7575832 562.817435,32.5417701 562.204949,32.895423 C561.809012,33.1260662 561.562993,33.5514748 561.562993,34.0076358 L561.562993,58.1393213 C561.562993,58.8491898 562.140882,59.4257978 562.849469,59.4257978 L596.154347,59.4257978 C596.864216,59.4257978 597.440824,58.8491898 597.440824,58.1393213 L597.440824,34.0076358 C597.440824,33.5527562 597.194804,33.1260662 596.797585,32.8967044 C596.1851,32.5417701 595.976239,31.7575832 596.332455,31.1450974 C596.686108,30.5326116 597.470295,30.32247 598.084062,30.6786856 C599.26803,31.3667712 600.003526,32.6417155 600.003526,34.0076358 L600.003526,58.1393213 C600.003526,60.2612387 598.276265,61.9885 596.154347,61.9885 Z M587.190015,36.3614778 L571.813801,36.3614778 C571.106496,36.3614778 570.53245,35.7874325 570.53245,35.0801267 C570.53245,34.3728209 571.106496,33.7987756 571.813801,33.7987756 L587.190015,33.7987756 C587.898602,33.7987756 588.471366,34.3728209 588.471366,35.0801267 C588.471366,35.7874325 587.898602,36.3614778 587.190015,36.3614778 Z M587.190015,40.2055311 L571.813801,40.2055311 C571.106496,40.2055311 570.53245,39.6314858 570.53245,38.92418 C570.53245,38.2168742 571.106496,37.6428289 571.813801,37.6428289 L587.190015,37.6428289 C587.898602,37.6428289 588.471366,38.2168742 588.471366,38.92418 C588.471366,39.6314858 587.898602,40.2055311 587.190015,40.2055311 Z M578.220557,44.0495845 L571.813801,44.0495845 C571.106496,44.0495845 570.53245,43.4768205 570.53245,42.7682333 C570.53245,42.0609275 571.106496,41.4868822 571.813801,41.4868822 L578.220557,41.4868822 C578.927863,41.4868822 579.501908,42.0609275 579.501908,42.7682333 C579.501908,43.4768205 578.927863,44.0495845 578.220557,44.0495845 Z" id="Shape" fill="#FFFFFF"></path>
            <ellipse id="Oval-Copy-2" fill="#EEBD54" cx="698.5" cy="43.5" rx="43.5" ry="43.5"></ellipse>
            <path d="M710.463625,63 L684.848875,63 C682.727125,63 681,61.272875 681,59.151125 L681,30.973875 C681,28.852125 682.727125,27.125 684.848875,27.125 L688.6875,27.125 C689.39475,27.125 689.96875,27.699 689.96875,28.40625 C689.96875,29.1135 689.39475,29.6875 688.6875,29.6875 L684.848875,29.6875 C684.139063,29.6875 683.5625,30.2640625 683.5625,30.973875 L683.5625,59.151125 C683.5625,59.8609375 684.139063,60.4375 684.848875,60.4375 L710.463625,60.4375 C711.173437,60.4375 711.75,59.8609375 711.75,59.151125 L711.75,55.2215312 C711.75,54.513 712.322719,53.9402812 713.03125,53.9402812 C713.739781,53.9402812 714.3125,54.513 714.3125,55.2215312 L714.3125,59.151125 C714.3125,61.272875 712.585375,63 710.463625,63 Z M713.03125,38.65625 C712.322719,38.65625 711.75,38.08225 711.75,37.375 L711.75,30.973875 C711.75,30.2640625 711.173437,29.6875 710.463625,29.6875 L706.625,29.6875 C705.916469,29.6875 705.34375,29.1135 705.34375,28.40625 C705.34375,27.699 705.916469,27.125 706.625,27.125 L710.463625,27.125 C712.585375,27.125 714.3125,28.852125 714.3125,30.973875 L714.3125,37.375 C714.3125,38.08225 713.739781,38.65625 713.03125,38.65625 Z M705.346313,33.53125 L689.967469,33.53125 C688.55425,33.53125 687.40625,32.38325 687.40625,30.9700312 L687.40625,28.4049688 C687.40625,26.99175 688.55425,25.84375 689.967469,25.84375 L689.96875,24.6931875 C689.96875,23.2082188 691.176969,22 692.661938,22 L702.650562,22 C704.135531,22 705.34375,23.2082188 705.34375,24.6931875 L705.346313,25.84375 C706.75825,25.84375 707.90625,26.99175 707.90625,28.4049688 L707.90625,30.9713125 C707.90625,32.38325 706.75825,33.53125 705.346313,33.53125 Z M692.661938,24.5625 C692.590188,24.5625 692.53125,24.6214375 692.53125,24.6931875 L692.53125,25.8411875 C692.53125,27.2556875 691.380688,28.40625 689.967469,28.40625 L689.96875,30.9700313 L705.346313,30.96875 L705.34375,28.40625 C703.930531,28.4049688 702.78125,27.2556875 702.78125,25.8424688 L702.78125,24.6931875 C702.78125,24.6214375 702.722313,24.5625 702.650563,24.5625 L692.661938,24.5625 L692.661938,24.5625 Z M711.75,56.59375 C706.098406,56.59375 701.5,51.9953438 701.5,46.34375 C701.5,40.6921562 706.098406,36.09375 711.75,36.09375 C717.401594,36.09375 722,40.6921562 722,46.34375 C722,51.9953438 717.401594,56.59375 711.75,56.59375 Z M711.75,38.65625 C707.510344,38.65625 704.0625,42.1040937 704.0625,46.34375 C704.0625,50.5834063 707.510344,54.03125 711.75,54.03125 C715.989656,54.03125 719.4375,50.5834063 719.4375,46.34375 C719.4375,42.1040937 715.989656,38.65625 711.75,38.65625 Z M710.98125,51.46875 C710.641719,51.46875 710.316281,51.3355 710.075406,51.0933438 L707.000406,48.0183438 C706.499438,47.517375 706.499438,46.707625 707.000406,46.2066563 C707.501375,45.7056875 708.311125,45.7056875 708.812094,46.2066563 L710.842875,48.2374375 L714.56875,43.26875 C714.992844,42.7037188 715.797469,42.587125 716.361219,43.0125 C716.927531,43.4365938 717.042844,44.2399375 716.617469,44.8049688 L712.004969,50.9549688 C711.782031,51.2522188 711.4425,51.438 711.070938,51.463625 L710.98125,51.46875 L710.98125,51.46875 Z" id="Shape" fill="#FFFFFF"></path>
            <path d="M283.75,23 C278.363125,23 274,27.363125 274,32.75 C274,38.136875 278.363125,42.5 283.75,42.5 C289.136875,42.5 293.5,38.136875 293.5,32.75 C293.5,27.363125 289.136875,23 283.75,23 Z M284.725,37.625 L282.775,37.625 L282.775,31.775 L284.725,31.775 L284.725,37.625 Z M284.725,29.825 L282.775,29.825 L282.775,27.875 L284.725,27.875 L284.725,29.825 Z" id="Page-1" stroke="#FFFFFF" fill="#0FBBEF"></path>
            <polygon id="Page-1" fill="#0FBBEF" transform="translate(333.500000, 33.500000) rotate(-270.000000) translate(-333.500000, -33.500000) " points="333.5 24 331.819687 25.6803125 338.451875 32.3125 324 32.3125 324 34.6875 338.451875 34.6875 331.819687 41.3196875 333.5 43 343 33.5"></polygon>
        </g>
    </g>
</svg>