<?xml version="1.0" encoding="UTF-8"?>
<svg width="173px" height="23px" viewBox="0 0 173 23" version="1.1" xmlns="http://www.w3.org/2000/svg" xmlns:xlink="http://www.w3.org/1999/xlink">
    <!-- Generator: Sketch 42 (36781) - http://www.bohemiancoding.com/sketch -->
    <title>QuoteRunner</title>
    <desc>Created with Sketch.</desc>
    <defs></defs>
    <g id="Page-1" stroke="none" stroke-width="1" fill="none" fill-rule="evenodd">
        <g id="Desktop-HD-Copy-23" transform="translate(-40.000000, -28.000000)" fill="#065466">
            <path d="M40.008,39.088 C40.008,32.788 44.74,28.728 50.34,28.728 C55.912,28.728 60.644,32.788 60.644,39.088 C60.644,41.748 59.804,43.988 58.404,45.696 L60.84,48.356 L57.928,50.82 L55.492,48.132 C53.98,48.972 52.188,49.42 50.34,49.42 C44.74,49.42 40.008,45.36 40.008,39.088 Z M44.6,39.06 C44.6,43.204 47.568,45.052 50.34,45.052 C51.012,45.052 51.684,44.94 52.356,44.716 L49.444,41.524 L52.384,39.06 L55.296,42.252 C55.772,41.384 56.052,40.348 56.052,39.06 C56.052,34.916 53.084,33.04 50.34,33.04 C47.568,33.04 44.6,34.916 44.6,39.06 Z M72.5626667,49 L76.6506667,49 C76.6226667,48.776 76.5106667,47.768 76.5106667,46.508 L76.5106667,35.084 L72.2546667,35.084 L72.2546667,43.008 C72.2546667,44.408 71.3586667,45.388 69.9306667,45.388 C68.4186667,45.388 67.6906667,44.324 67.6906667,42.98 L67.6906667,35.084 L63.4346667,35.084 L63.4346667,43.876 C63.4346667,46.844 65.3386667,49.308 68.7266667,49.308 C70.1266667,49.308 71.7226667,48.804 72.4506667,47.6 C72.4506667,47.964 72.5066667,48.748 72.5626667,49 Z M86.8053334,45.5 C88.4293334,45.5 89.9413334,44.38 89.9413334,42.028 C89.9413334,39.676 88.4293334,38.584 86.8053334,38.584 C85.2093334,38.584 83.6693334,39.676 83.6693334,42.028 C83.6693334,44.352 85.2093334,45.5 86.8053334,45.5 Z M86.8053334,34.664 C90.9773334,34.664 94.1973334,37.716 94.1973334,42.028 C94.1973334,46.34 90.9773334,49.42 86.8053334,49.42 C82.6613334,49.42 79.4133334,46.34 79.4133334,42.028 C79.4133334,37.716 82.6613334,34.664 86.8053334,34.664 Z M102.196,31.024 L98.388,31.024 L98.388,32.816 C98.388,34.104 97.688,35.084 96.232,35.084 L95.532,35.084 L95.532,38.808 L97.996,38.808 L97.996,44.772 C97.996,47.544 99.76,49.252 102.644,49.252 C103.988,49.252 104.688,48.944 104.856,48.86 L104.856,45.332 C104.604,45.388 104.184,45.472 103.736,45.472 C102.812,45.472 102.196,45.164 102.196,44.016 L102.196,38.808 L104.912,38.808 L104.912,35.084 L102.196,35.084 L102.196,31.024 Z M111.174667,40.376 L116.746667,40.376 C116.690667,39.312 115.962667,38.024 113.946667,38.024 C112.154667,38.024 111.258667,39.34 111.174667,40.376 Z M117.054667,43.988 L120.610667,44.996 C119.938667,47.404 117.726667,49.42 114.198667,49.42 C110.362667,49.42 106.946667,46.676 106.946667,42 C106.946667,37.52 110.278667,34.664 113.890667,34.664 C118.202667,34.664 120.862667,37.324 120.862667,41.804 C120.862667,42.392 120.806667,43.036 120.778667,43.12 L111.090667,43.12 C111.174667,44.688 112.602667,45.808 114.254667,45.808 C115.794667,45.808 116.662667,45.08 117.054667,43.988 Z M133.094,49 L130.238,41.076 L127.214,41.076 L125.534,49 L122.174,49 L126.374,29.148 L133.066,29.148 C136.65,29.148 138.666,31.332 138.666,34.216 C138.666,37.576 136.51,39.928 133.514,40.712 L136.678,49 L133.094,49 Z M127.83,38.136 L131.218,38.136 C133.598,38.136 135.222,36.764 135.222,34.58 C135.222,33.096 134.298,32.088 132.394,32.088 L129.118,32.088 L127.83,38.136 Z M141.853333,35.364 L140.145333,43.344 C140.033333,43.876 139.977333,44.38 139.977333,44.856 C139.977333,47.46 141.573333,49.308 144.429333,49.308 C145.689333,49.308 147.145333,48.72 147.929333,47.516 C147.901333,47.768 147.901333,47.992 147.901333,48.188 C147.901333,48.552 147.929333,48.832 147.957333,49 L151.093333,49 C151.065333,48.692 151.065333,48.552 151.065333,48.384 C151.065333,47.516 151.205333,46.732 151.373333,45.892 L153.557333,35.364 L150.365333,35.364 L148.685333,43.316 C148.321333,45.024 147.257333,46.508 145.521333,46.508 C143.925333,46.508 143.281333,45.584 143.281333,44.296 C143.281333,43.96 143.337333,43.596 143.421333,43.204 L145.101333,35.364 L141.853333,35.364 Z M166.936667,49 L168.728667,40.712 C168.840667,40.236 168.896667,39.648 168.896667,39.2 C168.896667,36.708 167.328667,34.972 164.780667,34.972 C163.268667,34.972 161.728667,35.476 160.748667,36.792 C160.860667,36.26 160.888667,35.532 160.888667,35.364 L157.752667,35.364 C157.752667,35.476 157.724667,36.428 157.444667,37.716 L155.064667,49 L158.284667,49 L159.992667,41.076 C160.356667,39.424 161.420667,37.856 163.268667,37.856 C164.752667,37.856 165.564667,38.696 165.564667,40.068 C165.564667,40.32 165.508667,40.628 165.452667,40.936 L163.716667,49 L166.936667,49 Z M183.032,49 L184.824,40.712 C184.936,40.236 184.992,39.648 184.992,39.2 C184.992,36.708 183.424,34.972 180.876,34.972 C179.364,34.972 177.824,35.476 176.844,36.792 C176.956,36.26 176.984,35.532 176.984,35.364 L173.848,35.364 C173.848,35.476 173.82,36.428 173.54,37.716 L171.16,49 L174.38,49 L176.088,41.076 C176.452,39.424 177.516,37.856 179.364,37.856 C180.848,37.856 181.66,38.696 181.66,40.068 C181.66,40.32 181.604,40.628 181.548,40.936 L179.812,49 L183.032,49 Z M190.867333,40.684 L197.419333,40.684 C197.419333,40.628 197.447333,40.404 197.447333,40.264 C197.447333,39.088 196.747333,37.66 194.675333,37.66 C192.631333,37.66 191.343333,39.088 190.867333,40.684 Z M200.219333,43.064 L190.503333,43.064 C190.475333,43.204 190.475333,43.26 190.475333,43.372 C190.475333,45.304 191.819333,46.648 193.695333,46.648 C195.487333,46.648 196.635333,45.696 197.167333,44.66 L199.659333,46.032 C198.735333,47.824 196.635333,49.42 193.611333,49.42 C190.223333,49.42 187.367333,47.124 187.367333,43.176 C187.367333,38.052 191.035333,34.944 194.759333,34.944 C198.511333,34.944 200.611333,37.296 200.611333,40.572 C200.611333,41.496 200.415333,42.448 200.219333,43.064 Z M212.338667,38.668 L213.038667,35.308 C212.758667,35.252 212.422667,35.224 212.058667,35.224 C210.742667,35.224 208.978667,35.672 207.942667,37.24 C208.082667,36.708 208.138667,35.756 208.138667,35.364 L205.002667,35.364 C205.002667,35.476 204.974667,36.428 204.694667,37.716 L202.314667,49 L205.506667,49 L206.878667,42.616 C207.550667,39.536 209.286667,38.528 211.190667,38.528 C211.554667,38.528 211.946667,38.584 212.338667,38.668 Z" id="QuoteRunner"></path>
        </g>
    </g>
</svg>