<?xml version="1.0" encoding="UTF-8"?>
<svg width="18px" height="18px" viewBox="0 0 18 18" version="1.1" xmlns="http://www.w3.org/2000/svg" xmlns:xlink="http://www.w3.org/1999/xlink">
    <!-- Generator: Sketch 42 (36781) - http://www.bohemiancoding.com/sketch -->
    <title>Compass</title>
    <desc>Created with Sketch.</desc>
    <defs></defs>
    <g id="Page-1" stroke="none" stroke-width="1" fill="none" fill-rule="evenodd">
        <g id="Desktop-HD-Copy-64" transform="translate(-611.000000, -404.000000)" fill="#063649">
            <g id="Group-4" transform="translate(-65.000000, -14.000000)">
                <g id="Compass" transform="translate(676.000000, 418.000000)">
                    <path d="M8.87403906,2.71926357 C12.2591656,2.71926357 15.0288146,5.48891254 15.0288146,8.87403906 C15.0288146,12.2591656 12.2591656,15.0288146 8.87403906,15.0288146 C5.48891254,15.0288146 2.71926357,12.2591656 2.71926357,8.87403906 C2.71926357,5.48891254 5.48891254,2.71926357 8.87403906,2.71926357 L8.87403906,2.71926357 Z M8.87403906,0.668 C4.36086529,0.668 0.668,4.36086529 0.668,8.87403906 C0.668,13.3872128 4.36086529,17.0800781 8.87403906,17.0800781 C13.3872128,17.0800781 17.0800781,13.3872128 17.0800781,8.87403906 C17.0800781,4.36086529 13.3872128,0.668 8.87403906,0.668 Z" id="Fill-1"></path>
                    <polygon id="Fill-2" points="7.33534519 7.33534519 5.79665132 11.9514268 10.4127329 10.4127329 11.9514268 5.79665132"></polygon>
                </g>
            </g>
        </g>
    </g>
</svg>