<?xml version="1.0" encoding="UTF-8"?>
<svg width="671px" height="190px" viewBox="0 0 671 190" version="1.1" xmlns="http://www.w3.org/2000/svg" xmlns:xlink="http://www.w3.org/1999/xlink">
    <!-- Generator: Sketch 41.2 (35397) - http://www.bohemiancoding.com/sketch -->
    <title>Artboard 2</title>
    <desc>Created with Sketch.</desc>
    <defs>
        <path d="M42,84 C54.9015388,84 84,84 84,84 L84,42 C84,18.8040405 65.1959595,0 42,0 C18.8040405,0 0,18.8040405 0,42 C0,65.1959595 18.8040405,84 42,84 Z" id="path-1"></path>
        <filter x="-50%" y="-50%" width="200%" height="200%" filterUnits="objectBoundingBox" id="filter-2">
            <feMorphology radius="1.5" operator="dilate" in="SourceAlpha" result="shadowSpreadOuter1"></feMorphology>
            <feOffset dx="0" dy="7" in="shadowSpreadOuter1" result="shadowOffsetOuter1"></feOffset>
            <feGaussianBlur stdDeviation="5" in="shadowOffsetOuter1" result="shadowBlurOuter1"></feGaussianBlur>
            <feComposite in="shadowBlurOuter1" in2="SourceAlpha" operator="out" result="shadowBlurOuter1"></feComposite>
            <feColorMatrix values="0 0 0 0 0   0 0 0 0 0   0 0 0 0 0  0 0 0 0.0602638134 0" type="matrix" in="shadowBlurOuter1"></feColorMatrix>
        </filter>
        <path d="M42,84 C54.9015388,84 84,84 84,84 L84,42 C84,18.8040405 65.1959595,0 42,0 C18.8040405,0 0,18.8040405 0,42 C0,65.1959595 18.8040405,84 42,84 Z" id="path-3"></path>
        <filter x="-50%" y="-50%" width="200%" height="200%" filterUnits="objectBoundingBox" id="filter-4">
            <feMorphology radius="1.5" operator="dilate" in="SourceAlpha" result="shadowSpreadOuter1"></feMorphology>
            <feOffset dx="0" dy="7" in="shadowSpreadOuter1" result="shadowOffsetOuter1"></feOffset>
            <feGaussianBlur stdDeviation="5" in="shadowOffsetOuter1" result="shadowBlurOuter1"></feGaussianBlur>
            <feComposite in="shadowBlurOuter1" in2="SourceAlpha" operator="out" result="shadowBlurOuter1"></feComposite>
            <feColorMatrix values="0 0 0 0 0   0 0 0 0 0   0 0 0 0 0  0 0 0 0.0602638134 0" type="matrix" in="shadowBlurOuter1"></feColorMatrix>
        </filter>
    </defs>
    <g id="Page-1" stroke="none" stroke-width="1" fill="none" fill-rule="evenodd">
        <g id="Artboard-2">
            <g id="Group-12" transform="translate(3.000000, 3.000000)">
                <g id="Group-4">
                    <g id="Oval-2">
                        <use fill="black" fill-opacity="1" filter="url(#filter-2)" xlink:href="#path-1"></use>
                        <use stroke="#46DEB0" stroke-width="3" fill-opacity="0.34" fill="#FFFFFF" fill-rule="evenodd" xlink:href="#path-1"></use>
                    </g>
                    <path d="M60.866077,54.9453034 L57.407353,28.0394691 C57.4042775,28.0179405 57.4005869,27.9964119 57.3968963,27.9754984 C56.1568487,21.3256201 49.0179635,15.9157895 41.4841823,15.9157895 C33.8206143,15.9157895 26.6602006,21.4461803 25.5161091,28.2879707 L22.1145896,54.9465336 C22.0659965,55.3260522 22.2093155,55.7049556 22.4971837,55.958378 C22.7844368,56.2111854 23.1781027,56.3040659 23.5490098,56.2087249 L30.5402702,54.3904805 L40.6722464,66.7048421 C40.891223,66.9711817 41.2172276,67.1255725 41.5623004,67.1255725 L41.5635306,67.1255725 C41.9073731,67.1255725 42.2339928,66.9717968 42.4523544,66.7066874 L52.5874061,54.4280018 L59.4328871,56.2087249 C59.527613,56.2339442 59.6247992,56.2462462 59.7226006,56.2462462 C60.000012,56.2462462 60.2718876,56.1459844 60.4853283,55.9577629 C60.7725814,55.7049556 60.9152853,55.3254371 60.866077,54.9453034 Z M41.5641457,64.159546 L32.9010354,53.6302133 C34.0586592,53.0206462 35.2630308,51.9306838 35.9064285,50.1721043 C37.6816157,51.4804284 39.6517905,52.1810307 41.6693283,52.1810307 C43.6634921,52.1810307 45.5223333,51.4939606 47.1523562,50.3590957 C47.8351205,52.0678517 49.0542546,53.1141419 50.2063425,53.6911085 L41.5641457,64.159546 Z M51.2323342,34.6936531 C51.2421759,34.9286224 51.2514024,37.4653071 51.2514024,37.8479011 C51.2514024,43.294638 46.9770519,49.8737794 41.6693283,49.8737794 C37.3439242,49.8737794 32.2188862,44.7093748 32.0940203,38.0717986 L32.0884844,30.5466288 L36.2435049,26.4758773 C41.3371727,30.9015432 48.4379214,31.6421272 51.231104,31.7571515 L51.231104,34.6376787 C51.231104,34.6530563 51.2323342,34.6788906 51.2323342,34.6936531 Z M52.3493612,51.9829675 C52.31184,51.973741 52.264477,51.9645144 52.2269557,51.9583634 C51.9323214,51.9128458 49.6515196,51.4650508 49.0536395,48.7315332 C51.816067,45.8768403 53.5580386,41.6836833 53.5580386,37.8485162 C53.5580386,37.8208366 53.5512725,35.0737867 53.5377402,34.6186105 L53.5377402,30.6210563 C53.5377402,30.3091991 53.411029,30.010259 53.1877466,29.7931277 C52.9638491,29.5753812 52.6501466,29.4523606 52.3499763,29.4677382 C52.3401347,29.4683533 52.2614015,29.4701986 52.1230033,29.4701986 C50.5065127,29.4701986 42.1829393,29.2100101 37.0388331,24.066519 C36.5922683,23.618724 35.8682921,23.6168787 35.4161914,24.0579076 L30.1281512,29.2389199 C29.9067141,29.4560513 29.7818482,29.7525309 29.7818482,30.0625428 L29.7873841,38.0964027 C29.8495095,41.3798224 31.1086253,44.8280897 33.2436477,47.5560714 C33.4823077,47.8605474 33.7295791,48.1484156 33.9811562,48.4245968 C33.4915342,51.4281446 31.0606473,51.9110005 30.7635525,51.9577483 C30.7192651,51.9638993 30.6749777,51.9718957 30.6319205,51.9835826 L24.6186738,53.5477895 L27.7981411,28.6250471 C28.7417091,22.9863982 35.0096084,18.2230407 41.4847974,18.2230407 C47.8400413,18.2230407 54.0778006,22.8652229 55.1240908,28.3667039 L58.3619928,53.5471744 L52.3493612,51.9829675 Z" id="Shape" stroke="#46DEB0" stroke-width="0.5" fill="#46DEB0"></path>
                </g>
            </g>
            <g id="Group-13" transform="translate(95.000000, 3.000000)">
                <g id="Oval-2-Copy">
                    <use fill="black" fill-opacity="1" filter="url(#filter-4)" xlink:href="#path-3"></use>
                    <use stroke="#E69932" stroke-width="3" fill-opacity="0.332484149" fill="#FFFFFF" fill-rule="evenodd" xlink:href="#path-3"></use>
                </g>
                <path d="M51.8676333,51.5118471 C53.8055792,49.1015997 54.9746625,45.998003 54.9746625,42.6115745 C54.9746625,42.41524 54.9664247,42.2209648 54.9588733,42.0266897 C56.8714194,39.3336107 58,36.0467226 58,32.4989703 C57.9993135,23.4016767 50.5969503,16 41.4996568,16 C32.4016767,16 25,23.4016767 25,32.4996568 C25,36.2869922 26.2864721,39.7777662 28.4399742,42.5648936 L28.4399742,42.8648874 C28.4399742,42.9191196 28.4427201,42.9719789 28.4502715,43.0241518 C28.538828,46.1778619 29.6598573,49.0734538 31.4618793,51.3669988 L27.6203116,55.0582264 C27.1095671,55.5483764 27.091032,56.3584282 27.5777496,56.8719186 L35.6727757,65.4124732 C35.9137318,65.665786 36.2459903,65.8106343 36.5960974,65.8140667 L36.6077677,65.8140667 C36.9530694,65.8140667 37.283955,65.6753968 37.526284,65.4282624 L41.5902727,61.2894469 L45.6528884,65.4282624 C45.8952175,65.6747103 46.2254166,65.8140667 46.5714048,65.8140667 L46.583075,65.8140667 C46.9324957,65.8106343 47.2661272,65.665786 47.5063968,65.4124732 L55.6000499,56.8719186 C56.0867675,56.3584282 56.0675459,55.5483764 55.5574879,55.0582264 L51.8676333,51.5118471 Z M28.4399742,31.7877723 L28.4399742,37.3242704 C27.8811758,35.8208691 27.5743172,34.1952737 27.5743172,32.4996568 C27.5743172,24.8206403 33.8213268,18.5743172 41.4996568,18.5743172 C49.1779867,18.5743172 55.4249964,24.8213268 55.4249964,32.4996568 C55.4249964,33.7415074 55.2602401,34.9442283 54.952695,36.0892846 L54.952695,32.4111002 C54.952695,32.0630526 54.8112791,31.7301075 54.5620852,31.4877785 C54.3128913,31.2454494 53.9758274,31.1095255 53.6270933,31.1246282 C53.6161095,31.1253146 53.5282395,31.1273741 53.3737804,31.1273741 C51.569699,31.1273741 42.2801897,30.8363046 36.5391192,25.0959206 C36.0400449,24.5961598 35.2320526,24.5927274 34.7281729,25.0863098 L28.826465,30.8685694 C28.5786441,31.110212 28.4399742,31.441784 28.4399742,31.7877723 Z M31.0197832,42.8401739 C31.0190968,42.8037902 31.0170373,42.7687795 31.0136049,42.7344553 L31.0136049,32.3287221 L35.6508082,27.7848807 C41.3355869,32.7248237 49.2610514,33.5520376 52.3783778,33.6797237 L52.3783778,41.8756631 C52.3783778,41.8990036 52.3783778,41.9216575 52.3811238,41.944998 C52.3921075,42.1660461 52.3996588,42.3884671 52.3996588,42.612261 C52.3996588,48.8352437 47.6031911,53.8980674 41.7069751,53.8980674 C35.9288344,53.8980674 31.1344262,48.9375299 31.0197832,42.8401739 Z M36.6228703,62.6733998 L30.3243744,56.0282291 L33.0490316,53.4106634 L39.5788729,59.6617919 L36.6228703,62.6733998 Z M41.5895862,58.0224668 L39.819829,56.3282228 C40.4369786,56.4229577 41.0671715,56.4723846 41.7076616,56.4723846 C42.2534168,56.4723846 42.7895613,56.4339415 43.3181544,56.3673525 L41.5895862,58.0224668 Z M46.5542427,62.6733998 L43.5975536,59.6617919 L50.1273949,53.4106634 L52.8520522,56.0282291 L46.5542427,62.6733998 Z" id="Shape-Copy" stroke="#E69932" stroke-width="0.25" fill="#E69932"></path>
            </g>
            <ellipse id="Oval" fill="#0FBBEF" cx="337.5" cy="43.5" rx="43.5" ry="43.5"></ellipse>
            <path d="M338,64 C337.47625,64 336.9525,63.90375 336.47375,63.71 L319.8375,56.9525 C318.705,56.49375 318,55.55625 318,54.50375 L318,33.495 C318,32.445 318.70375,31.5075 319.8375,31.0475 L336.47125,24.2925 C337.42875,23.9025 338.57125,23.9025 339.5275,24.2925 L356.16125,31.0475 C357.29625,31.5075 358,32.44625 358,33.495 L358,54.50375 C358,55.555 357.29625,56.49375 356.16,56.9525 L339.5275,63.70875 C339.04875,63.9025 338.52375,64 338,64 Z M320.5075,54.495 L320.7775,54.635 L337.41375,61.39125 C337.765,61.5325 338.2375,61.5325 338.59,61.39125 L355.2225,54.635 L355.22375,54.635 C355.41625,54.5575 355.5,54.465 355.5125,54.44 L355.5,33.495 L355.22,33.3625 L338.5875,26.6075 C338.23625,26.46625 337.765,26.465 337.41375,26.6075 L320.77875,33.3625 C320.585,33.4425 320.50125,33.53375 320.4875,33.56 L320.5,54.50375 L320.5075,54.495 L320.5075,54.495 Z M338,64 C337.31,64 336.75,63.44125 336.75,62.75 L336.75,41.09625 L319.5075,34.2 C318.86625,33.9425 318.555,33.21625 318.81125,32.575 C319.0675,31.93375 319.7925,31.6225 320.43625,31.87875 L338.465,39.09 C338.93875,39.27875 339.25,39.73875 339.25,40.25 L339.25,62.75 C339.25,63.44125 338.69,64 338,64 Z M338,41.5 C337.50375,41.5 337.035,41.2025 336.83875,40.71375 C336.5825,40.0725 336.89375,39.345 337.535,39.08875 L355.56375,31.8775 C356.19875,31.625 356.9325,31.9325 357.18875,32.57375 C357.445,33.215 357.1325,33.9425 356.49125,34.19875 L338.46375,41.41 C338.3125,41.47125 338.155,41.5 338,41.5 L338,41.5 Z M344.25,46.5 C343.755,46.5 343.285,46.20375 343.08875,45.71375 C342.8325,45.0725 343.145,44.34625 343.78625,44.08875 L349.315,41.8775 C349.95,41.625 350.68375,41.9325 350.94,42.57375 C351.19625,43.215 350.88375,43.9425 350.2425,44.19875 L344.71375,46.41 C344.5625,46.4725 344.405,46.5 344.25,46.5 L344.25,46.5 Z" id="Shape" fill="#FFFFFF"></path>
            <ellipse id="Oval-Copy" fill="#46DEB0" cx="425.5" cy="43.5" rx="43.5" ry="43.5"></ellipse>
            <path d="M424.501908,53.0203236 C423.670311,53.0203236 422.838714,52.8396531 422.064778,52.4783121 L404.73963,44.3929865 C404.098954,44.0944317 403.820901,43.3307465 404.120737,42.6900709 C404.419292,42.0493954 405.181696,41.7726235 405.823653,42.0711783 L423.148801,50.1565038 C424.009869,50.5562854 424.995228,50.5562854 425.856296,50.1565038 L443.181445,42.0711783 C443.823402,41.7713422 444.584524,42.0493954 444.88436,42.6900709 C445.182915,43.3307465 444.907425,44.0944317 444.265468,44.3929865 L426.940319,52.4783121 C426.165102,52.8396531 425.333505,53.0203236 424.501908,53.0203236 L424.501908,53.0203236 Z M438.59677,46.6122867 C437.888183,46.6122867 437.315419,46.0395227 437.315419,45.3309356 L437.315419,31.2335106 C437.315419,30.5274862 436.742655,29.9547222 436.036631,29.9547222 L412.967185,29.9547222 C412.261161,29.9547222 411.688397,30.5274862 411.688397,31.2335106 L411.688397,45.3309356 C411.688397,46.0395227 411.114352,46.6122867 410.407046,46.6122867 C409.69974,46.6122867 409.125695,46.0395227 409.125695,45.3309356 L409.125695,31.2335106 C409.125695,29.1154373 410.849112,27.39202 412.967185,27.39202 L436.036631,27.39202 C438.154704,27.39202 439.878121,29.1154373 439.878121,31.2335106 L439.878121,45.3309356 C439.878121,46.0395227 439.305358,46.6122867 438.59677,46.6122867 Z M430.266707,26.1106689 C430.05144,26.1106689 429.832329,26.0568522 429.632438,25.9415306 L426.259922,24.0143785 C425.189994,23.403174 423.812541,23.403174 422.743894,24.0143785 L419.371378,25.9415306 C418.75633,26.2939021 417.974706,26.0799165 417.623615,25.4648679 C417.272525,24.8511008 417.486511,24.0681952 418.100278,23.717105 L421.472794,21.789953 C423.311533,20.7366823 425.689721,20.7366823 427.532304,21.789953 L430.90482,23.717105 C431.518587,24.0681952 431.732572,24.8511008 431.381482,25.4648679 C431.144432,25.8787444 430.712617,26.1106689 430.266707,26.1106689 L430.266707,26.1106689 Z M441.154347,61.9885 L407.849469,61.9885 C405.727552,61.9885 404.00029,60.2612387 404.00029,58.1393213 L404.00029,34.0076358 C404.00029,32.6404342 404.735786,31.3654898 405.921036,30.6786856 C406.533522,30.3237514 407.317708,30.5338929 407.671361,31.1450974 C408.026296,31.7575832 407.817435,32.5417701 407.204949,32.895423 C406.809012,33.1260662 406.562993,33.5514748 406.562993,34.0076358 L406.562993,58.1393213 C406.562993,58.8491898 407.140882,59.4257978 407.849469,59.4257978 L441.154347,59.4257978 C441.864216,59.4257978 442.440824,58.8491898 442.440824,58.1393213 L442.440824,34.0076358 C442.440824,33.5527562 442.194804,33.1260662 441.797585,32.8967044 C441.1851,32.5417701 440.976239,31.7575832 441.332455,31.1450974 C441.686108,30.5326116 442.470295,30.32247 443.084062,30.6786856 C444.26803,31.3667712 445.003526,32.6417155 445.003526,34.0076358 L445.003526,58.1393213 C445.003526,60.2612387 443.276265,61.9885 441.154347,61.9885 Z M432.190015,36.3614778 L416.813801,36.3614778 C416.106496,36.3614778 415.53245,35.7874325 415.53245,35.0801267 C415.53245,34.3728209 416.106496,33.7987756 416.813801,33.7987756 L432.190015,33.7987756 C432.898602,33.7987756 433.471366,34.3728209 433.471366,35.0801267 C433.471366,35.7874325 432.898602,36.3614778 432.190015,36.3614778 Z M432.190015,40.2055311 L416.813801,40.2055311 C416.106496,40.2055311 415.53245,39.6314858 415.53245,38.92418 C415.53245,38.2168742 416.106496,37.6428289 416.813801,37.6428289 L432.190015,37.6428289 C432.898602,37.6428289 433.471366,38.2168742 433.471366,38.92418 C433.471366,39.6314858 432.898602,40.2055311 432.190015,40.2055311 Z M423.220557,44.0495845 L416.813801,44.0495845 C416.106496,44.0495845 415.53245,43.4768205 415.53245,42.7682333 C415.53245,42.0609275 416.106496,41.4868822 416.813801,41.4868822 L423.220557,41.4868822 C423.927863,41.4868822 424.501908,42.0609275 424.501908,42.7682333 C424.501908,43.4768205 423.927863,44.0495845 423.220557,44.0495845 Z" id="Shape" fill="#FFFFFF"></path>
            <ellipse id="Oval-Copy-2" fill="#EEBD54" cx="513.5" cy="43.5" rx="43.5" ry="43.5"></ellipse>
            <path d="M525.463625,63 L499.848875,63 C497.727125,63 496,61.272875 496,59.151125 L496,30.973875 C496,28.852125 497.727125,27.125 499.848875,27.125 L503.6875,27.125 C504.39475,27.125 504.96875,27.699 504.96875,28.40625 C504.96875,29.1135 504.39475,29.6875 503.6875,29.6875 L499.848875,29.6875 C499.139063,29.6875 498.5625,30.2640625 498.5625,30.973875 L498.5625,59.151125 C498.5625,59.8609375 499.139063,60.4375 499.848875,60.4375 L525.463625,60.4375 C526.173437,60.4375 526.75,59.8609375 526.75,59.151125 L526.75,55.2215312 C526.75,54.513 527.322719,53.9402812 528.03125,53.9402812 C528.739781,53.9402812 529.3125,54.513 529.3125,55.2215312 L529.3125,59.151125 C529.3125,61.272875 527.585375,63 525.463625,63 Z M528.03125,38.65625 C527.322719,38.65625 526.75,38.08225 526.75,37.375 L526.75,30.973875 C526.75,30.2640625 526.173437,29.6875 525.463625,29.6875 L521.625,29.6875 C520.916469,29.6875 520.34375,29.1135 520.34375,28.40625 C520.34375,27.699 520.916469,27.125 521.625,27.125 L525.463625,27.125 C527.585375,27.125 529.3125,28.852125 529.3125,30.973875 L529.3125,37.375 C529.3125,38.08225 528.739781,38.65625 528.03125,38.65625 Z M520.346313,33.53125 L504.967469,33.53125 C503.55425,33.53125 502.40625,32.38325 502.40625,30.9700312 L502.40625,28.4049688 C502.40625,26.99175 503.55425,25.84375 504.967469,25.84375 L504.96875,24.6931875 C504.96875,23.2082188 506.176969,22 507.661938,22 L517.650562,22 C519.135531,22 520.34375,23.2082188 520.34375,24.6931875 L520.346313,25.84375 C521.75825,25.84375 522.90625,26.99175 522.90625,28.4049688 L522.90625,30.9713125 C522.90625,32.38325 521.75825,33.53125 520.346313,33.53125 Z M507.661938,24.5625 C507.590188,24.5625 507.53125,24.6214375 507.53125,24.6931875 L507.53125,25.8411875 C507.53125,27.2556875 506.380688,28.40625 504.967469,28.40625 L504.96875,30.9700313 L520.346313,30.96875 L520.34375,28.40625 C518.930531,28.4049688 517.78125,27.2556875 517.78125,25.8424688 L517.78125,24.6931875 C517.78125,24.6214375 517.722313,24.5625 517.650563,24.5625 L507.661938,24.5625 L507.661938,24.5625 Z M526.75,56.59375 C521.098406,56.59375 516.5,51.9953438 516.5,46.34375 C516.5,40.6921562 521.098406,36.09375 526.75,36.09375 C532.401594,36.09375 537,40.6921562 537,46.34375 C537,51.9953438 532.401594,56.59375 526.75,56.59375 Z M526.75,38.65625 C522.510344,38.65625 519.0625,42.1040937 519.0625,46.34375 C519.0625,50.5834063 522.510344,54.03125 526.75,54.03125 C530.989656,54.03125 534.4375,50.5834063 534.4375,46.34375 C534.4375,42.1040937 530.989656,38.65625 526.75,38.65625 Z M525.98125,51.46875 C525.641719,51.46875 525.316281,51.3355 525.075406,51.0933438 L522.000406,48.0183438 C521.499438,47.517375 521.499438,46.707625 522.000406,46.2066563 C522.501375,45.7056875 523.311125,45.7056875 523.812094,46.2066563 L525.842875,48.2374375 L529.56875,43.26875 C529.992844,42.7037188 530.797469,42.587125 531.361219,43.0125 C531.927531,43.4365938 532.042844,44.2399375 531.617469,44.8049688 L527.004969,50.9549688 C526.782031,51.2522188 526.4425,51.438 526.070938,51.463625 L525.98125,51.46875 L525.98125,51.46875 Z" id="Shape" fill="#FFFFFF"></path>
            <path d="M205.75,8 C200.363125,8 196,12.363125 196,17.75 C196,23.136875 200.363125,27.5 205.75,27.5 C211.136875,27.5 215.5,23.136875 215.5,17.75 C215.5,12.363125 211.136875,8 205.75,8 Z M206.725,22.625 L204.775,22.625 L204.775,16.775 L206.725,16.775 L206.725,22.625 Z M206.725,14.825 L204.775,14.825 L204.775,12.875 L206.725,12.875 L206.725,14.825 Z" id="Page-1" stroke="#FFFFFF" fill="#0FBBEF"></path>
            <polygon id="Page-1" fill="#0FBBEF" transform="translate(234.500000, 18.500000) rotate(-270.000000) translate(-234.500000, -18.500000) " points="234.5 9 232.819688 10.6803125 239.451875 17.3125 225 17.3125 225 19.6875 239.451875 19.6875 232.819688 26.3196875 234.5 28 244 18.5"></polygon>
            <circle id="Oval-5" fill="#065466" cx="590.5" cy="26.5" r="25.5"></circle>
            <circle id="Oval-5-Copy" fill="#4FB9D7" cx="645.5" cy="26.5" r="25.5"></circle>
            <polygon id="Page-1" fill="#FFFFFF" points="590.5 17 588.819687 18.6803125 595.451875 25.3125 581 25.3125 581 27.6875 595.451875 27.6875 588.819687 34.3196875 590.5 36 600 26.5"></polygon>
            <polygon id="Page-1-Copy" fill="#FFFFFF" points="645.5 17 643.819687 18.6803125 650.451875 25.3125 636 25.3125 636 27.6875 650.451875 27.6875 643.819687 34.3196875 645.5 36 655 26.5"></polygon>
            <polygon id="Page-1" stroke="#E6E6E6" stroke-width="2" fill="#E7E7E7" points="270.641667 13 263 20.6416667 255.358333 13 253 15.3583333 263 25.3583333 273 15.3583333"></polygon>
            <g id="Twitter" transform="translate(228.000000, 35.000000)">
                <g id="Page-1">
                    <g>
                        <g id="Desktop-HD-Copy-7">
                            <g id="Twitter">
                                <circle id="Oval-3-Copy" fill="#58D0F4" cx="15.5" cy="15.5" r="15.5"></circle>
                                <path d="M11.175,12.35 C11.4250012,12.2666663 11.6749987,12.1666673 11.925,12.05 C12.1750012,11.9333328 12.3916657,11.8000007 12.575,11.65 C12.908335,11.383332 13.1916655,11.016669 13.425,10.55 C13.5416672,10.349999 13.633333,10.1208346 13.7,9.8625 C13.766667,9.60416538 13.8249997,9.308335 13.875,8.975 L15.625,8.975 L15.625,11.875 L18.55,11.875 L18.55,14.125 L15.625,14.125 L15.625,17.35 C15.625,17.7166685 15.6291666,18.0041656 15.6375,18.2125 C15.6458334,18.4208344 15.6749997,18.5833327 15.725,18.7 C15.8083337,18.900001 15.9749987,19.0833325 16.225,19.25 C16.358334,19.3333338 16.4999992,19.3916665 16.65,19.425 C16.8000007,19.4583335 16.9666657,19.475 17.15,19.475 C17.483335,19.475 17.8041651,19.4291671 18.1125,19.3375 C18.4208349,19.2458329 18.7333317,19.0916677 19.05,18.875 L19.05,20.875 C18.4833305,21.1083345 18.000002,21.2833327 17.6,21.4 C17.1499977,21.5000005 16.6750025,21.55 16.175,21.55 C15.8749985,21.55 15.6333342,21.5291669 15.45,21.4875 C15.2666657,21.4458331 15.0583345,21.391667 14.825,21.325 C14.3916645,21.1749992 14.0166682,20.9583347 13.7,20.675 C13.3499982,20.408332 13.141667,20.1250015 13.075,19.825 C12.941666,19.5749988 12.875,19.1416697 12.875,18.525 L12.875,14.125 L11.175,14.125 L11.175,12.35 Z" id="O" fill="#FFFFFF"></path>
                            </g>
                        </g>
                    </g>
                </g>
            </g>
            <g id="fb" transform="translate(193.000000, 35.000000)">
                <g id="FV">
                    <g id="Page-1">
                        <g id="Desktop-HD-Copy-7">
                            <g id="FV">
                                <circle id="Oval-3" fill="#58D0F4" cx="15.5" cy="15.5" r="15.5"></circle>
                                <path d="M13.525,12.85 L13.525,11.4 C13.525,10.866664 13.6166657,10.366669 13.8,9.9 C13.9833342,9.433331 14.2333317,9.02916837 14.55,8.6875 C14.8666682,8.34583163 15.2374979,8.075001 15.6625,7.875 C16.0875021,7.674999 16.5416642,7.575 17.025,7.575 L19.375,7.575 L19.375,10.45 L17.025,10.45 C16.891666,10.45 16.7625006,10.5374991 16.6375,10.7125 C16.5124994,10.8875009 16.45,11.0999987 16.45,11.35 L16.45,12.85 L19.375,12.85 L19.375,15.775 L16.45,15.775 L16.45,22.875 L13.525,22.875 L13.525,15.775 L11.175,15.775 L11.175,12.85 L13.525,12.85 Z" id="F" fill="#FFFFFF"></path>
                            </g>
                        </g>
                    </g>
                </g>
            </g>
            <ellipse id="Oval-Copy-3" fill="#0FBBEF" cx="44.5" cy="146.5" rx="43.5" ry="43.5"></ellipse>
            <path d="M44,167 C43.47625,167 42.9525,166.90375 42.47375,166.71 L25.8375,159.9525 C24.705,159.49375 24,158.55625 24,157.50375 L24,136.495 C24,135.445 24.70375,134.5075 25.8375,134.0475 L42.47125,127.2925 C43.42875,126.9025 44.57125,126.9025 45.5275,127.2925 L62.16125,134.0475 C63.29625,134.5075 64,135.44625 64,136.495 L64,157.50375 C64,158.555 63.29625,159.49375 62.16,159.9525 L45.5275,166.70875 C45.04875,166.9025 44.52375,167 44,167 Z M26.5075,157.495 L26.7775,157.635 L43.41375,164.39125 C43.765,164.5325 44.2375,164.5325 44.59,164.39125 L61.2225,157.635 L61.22375,157.635 C61.41625,157.5575 61.5,157.465 61.5125,157.44 L61.5,136.495 L61.22,136.3625 L44.5875,129.6075 C44.23625,129.46625 43.765,129.465 43.41375,129.6075 L26.77875,136.3625 C26.585,136.4425 26.50125,136.53375 26.4875,136.56 L26.5,157.50375 L26.5075,157.495 L26.5075,157.495 Z M44,167 C43.31,167 42.75,166.44125 42.75,165.75 L42.75,144.09625 L25.5075,137.2 C24.86625,136.9425 24.555,136.21625 24.81125,135.575 C25.0675,134.93375 25.7925,134.6225 26.43625,134.87875 L44.465,142.09 C44.93875,142.27875 45.25,142.73875 45.25,143.25 L45.25,165.75 C45.25,166.44125 44.69,167 44,167 Z M44,144.5 C43.50375,144.5 43.035,144.2025 42.83875,143.71375 C42.5825,143.0725 42.89375,142.345 43.535,142.08875 L61.56375,134.8775 C62.19875,134.625 62.9325,134.9325 63.18875,135.57375 C63.445,136.215 63.1325,136.9425 62.49125,137.19875 L44.46375,144.41 C44.3125,144.47125 44.155,144.5 44,144.5 L44,144.5 Z M50.25,149.5 C49.755,149.5 49.285,149.20375 49.08875,148.71375 C48.8325,148.0725 49.145,147.34625 49.78625,147.08875 L55.315,144.8775 C55.95,144.625 56.68375,144.9325 56.94,145.57375 C57.19625,146.215 56.88375,146.9425 56.2425,147.19875 L50.71375,149.41 C50.5625,149.4725 50.405,149.5 50.25,149.5 L50.25,149.5 Z" id="Shape-Copy-2" fill="#FFFFFF"></path>
            <ellipse id="Oval-Copy-4" fill="#0FD6EF" cx="138.5" cy="146.5" rx="43.5" ry="43.5"></ellipse>
            <path d="M137.501908,156.020324 C136.670311,156.020324 135.838714,155.839653 135.064778,155.478312 L117.73963,147.392987 C117.098954,147.094432 116.820901,146.330746 117.120737,145.690071 C117.419292,145.049395 118.181696,144.772624 118.823653,145.071178 L136.148801,153.156504 C137.009869,153.556285 137.995228,153.556285 138.856296,153.156504 L156.181445,145.071178 C156.823402,144.771342 157.584524,145.049395 157.88436,145.690071 C158.182915,146.330746 157.907425,147.094432 157.265468,147.392987 L139.940319,155.478312 C139.165102,155.839653 138.333505,156.020324 137.501908,156.020324 L137.501908,156.020324 Z M151.59677,149.612287 C150.888183,149.612287 150.315419,149.039523 150.315419,148.330936 L150.315419,134.233511 C150.315419,133.527486 149.742655,132.954722 149.036631,132.954722 L125.967185,132.954722 C125.261161,132.954722 124.688397,133.527486 124.688397,134.233511 L124.688397,148.330936 C124.688397,149.039523 124.114352,149.612287 123.407046,149.612287 C122.69974,149.612287 122.125695,149.039523 122.125695,148.330936 L122.125695,134.233511 C122.125695,132.115437 123.849112,130.39202 125.967185,130.39202 L149.036631,130.39202 C151.154704,130.39202 152.878121,132.115437 152.878121,134.233511 L152.878121,148.330936 C152.878121,149.039523 152.305358,149.612287 151.59677,149.612287 Z M143.266707,129.110669 C143.05144,129.110669 142.832329,129.056852 142.632438,128.941531 L139.259922,127.014378 C138.189994,126.403174 136.812541,126.403174 135.743894,127.014378 L132.371378,128.941531 C131.75633,129.293902 130.974706,129.079916 130.623615,128.464868 C130.272525,127.851101 130.486511,127.068195 131.100278,126.717105 L134.472794,124.789953 C136.311533,123.736682 138.689721,123.736682 140.532304,124.789953 L143.90482,126.717105 C144.518587,127.068195 144.732572,127.851101 144.381482,128.464868 C144.144432,128.878744 143.712617,129.110669 143.266707,129.110669 L143.266707,129.110669 Z M154.154347,164.9885 L120.849469,164.9885 C118.727552,164.9885 117.00029,163.261239 117.00029,161.139321 L117.00029,137.007636 C117.00029,135.640434 117.735786,134.36549 118.921036,133.678686 C119.533522,133.323751 120.317708,133.533893 120.671361,134.145097 C121.026296,134.757583 120.817435,135.54177 120.204949,135.895423 C119.809012,136.126066 119.562993,136.551475 119.562993,137.007636 L119.562993,161.139321 C119.562993,161.84919 120.140882,162.425798 120.849469,162.425798 L154.154347,162.425798 C154.864216,162.425798 155.440824,161.84919 155.440824,161.139321 L155.440824,137.007636 C155.440824,136.552756 155.194804,136.126066 154.797585,135.896704 C154.1851,135.54177 153.976239,134.757583 154.332455,134.145097 C154.686108,133.532612 155.470295,133.32247 156.084062,133.678686 C157.26803,134.366771 158.003526,135.641716 158.003526,137.007636 L158.003526,161.139321 C158.003526,163.261239 156.276265,164.9885 154.154347,164.9885 Z M145.190015,139.361478 L129.813801,139.361478 C129.106496,139.361478 128.53245,138.787432 128.53245,138.080127 C128.53245,137.372821 129.106496,136.798776 129.813801,136.798776 L145.190015,136.798776 C145.898602,136.798776 146.471366,137.372821 146.471366,138.080127 C146.471366,138.787432 145.898602,139.361478 145.190015,139.361478 Z M145.190015,143.205531 L129.813801,143.205531 C129.106496,143.205531 128.53245,142.631486 128.53245,141.92418 C128.53245,141.216874 129.106496,140.642829 129.813801,140.642829 L145.190015,140.642829 C145.898602,140.642829 146.471366,141.216874 146.471366,141.92418 C146.471366,142.631486 145.898602,143.205531 145.190015,143.205531 Z M136.220557,147.049584 L129.813801,147.049584 C129.106496,147.049584 128.53245,146.476821 128.53245,145.768233 C128.53245,145.060928 129.106496,144.486882 129.813801,144.486882 L136.220557,144.486882 C136.927863,144.486882 137.501908,145.060928 137.501908,145.768233 C137.501908,146.476821 136.927863,147.049584 136.220557,147.049584 Z" id="Shape-Copy-3" fill="#FFFFFF"></path>
            <ellipse id="Oval-Copy-5" fill="#0FEFCE" cx="232.5" cy="146.5" rx="43.5" ry="43.5"></ellipse>
            <path d="M245.463625,166 L219.848875,166 C217.727125,166 216,164.272875 216,162.151125 L216,133.973875 C216,131.852125 217.727125,130.125 219.848875,130.125 L223.6875,130.125 C224.39475,130.125 224.96875,130.699 224.96875,131.40625 C224.96875,132.1135 224.39475,132.6875 223.6875,132.6875 L219.848875,132.6875 C219.139062,132.6875 218.5625,133.264062 218.5625,133.973875 L218.5625,162.151125 C218.5625,162.860938 219.139062,163.4375 219.848875,163.4375 L245.463625,163.4375 C246.173438,163.4375 246.75,162.860938 246.75,162.151125 L246.75,158.221531 C246.75,157.513 247.322719,156.940281 248.03125,156.940281 C248.739781,156.940281 249.3125,157.513 249.3125,158.221531 L249.3125,162.151125 C249.3125,164.272875 247.585375,166 245.463625,166 Z M248.03125,141.65625 C247.322719,141.65625 246.75,141.08225 246.75,140.375 L246.75,133.973875 C246.75,133.264062 246.173438,132.6875 245.463625,132.6875 L241.625,132.6875 C240.916469,132.6875 240.34375,132.1135 240.34375,131.40625 C240.34375,130.699 240.916469,130.125 241.625,130.125 L245.463625,130.125 C247.585375,130.125 249.3125,131.852125 249.3125,133.973875 L249.3125,140.375 C249.3125,141.08225 248.739781,141.65625 248.03125,141.65625 Z M240.346313,136.53125 L224.967469,136.53125 C223.55425,136.53125 222.40625,135.38325 222.40625,133.970031 L222.40625,131.404969 C222.40625,129.99175 223.55425,128.84375 224.967469,128.84375 L224.96875,127.693187 C224.96875,126.208219 226.176969,125 227.661937,125 L237.650563,125 C239.135531,125 240.34375,126.208219 240.34375,127.693187 L240.346313,128.84375 C241.75825,128.84375 242.90625,129.99175 242.90625,131.404969 L242.90625,133.971313 C242.90625,135.38325 241.75825,136.53125 240.346313,136.53125 Z M227.661938,127.5625 C227.590188,127.5625 227.53125,127.621437 227.53125,127.693188 L227.53125,128.841187 C227.53125,130.255687 226.380688,131.40625 224.967469,131.40625 L224.96875,133.970031 L240.346313,133.96875 L240.34375,131.40625 C238.930531,131.404969 237.78125,130.255687 237.78125,128.842469 L237.78125,127.693187 C237.78125,127.621437 237.722313,127.5625 237.650563,127.5625 L227.661938,127.5625 L227.661938,127.5625 Z M246.75,159.59375 C241.098406,159.59375 236.5,154.995344 236.5,149.34375 C236.5,143.692156 241.098406,139.09375 246.75,139.09375 C252.401594,139.09375 257,143.692156 257,149.34375 C257,154.995344 252.401594,159.59375 246.75,159.59375 Z M246.75,141.65625 C242.510344,141.65625 239.0625,145.104094 239.0625,149.34375 C239.0625,153.583406 242.510344,157.03125 246.75,157.03125 C250.989656,157.03125 254.4375,153.583406 254.4375,149.34375 C254.4375,145.104094 250.989656,141.65625 246.75,141.65625 Z M245.98125,154.46875 C245.641719,154.46875 245.316281,154.3355 245.075406,154.093344 L242.000406,151.018344 C241.499438,150.517375 241.499438,149.707625 242.000406,149.206656 C242.501375,148.705688 243.311125,148.705688 243.812094,149.206656 L245.842875,151.237438 L249.56875,146.26875 C249.992844,145.703719 250.797469,145.587125 251.361219,146.0125 C251.927531,146.436594 252.042844,147.239938 251.617469,147.804969 L247.004969,153.954969 C246.782031,154.252219 246.4425,154.438 246.070938,154.463625 L245.98125,154.46875 L245.98125,154.46875 Z" id="Shape-Copy-4" fill="#FFFFFF"></path>
        </g>
    </g>
</svg>