<?xml version="1.0" encoding="UTF-8"?>
<svg width="223px" height="28px" viewBox="0 0 223 28" version="1.1" xmlns="http://www.w3.org/2000/svg" xmlns:xlink="http://www.w3.org/1999/xlink">
    <!-- Generator: Sketch 42 (36781) - http://www.bohemiancoding.com/sketch -->
    <title>QR_Logo2</title>
    <desc>Created with Sketch.</desc>
    <defs>
        <polygon id="path-1" points="0.162634981 34.7063977 0.162634981 0.380953669 45.5672366 0.380953669 45.5672366 34.7063977"></polygon>
    </defs>
    <g id="Page-1" stroke="none" stroke-width="1" fill="none" fill-rule="evenodd">
        <g id="Desktop-HD-Copy-6" transform="translate(-52.000000, -31.000000)">
            <g id="QR_Logo2" transform="translate(48.000000, 26.000000)">
                <g id="Group-10">
                    <text id="QuoteRunner" font-family="CircularStd-Black, Circular Std" font-size="28" font-weight="700" letter-spacing="0.186666682" fill="#004454">
                        <tspan x="53" y="29">Quot</tspan>
                        <tspan x="120.078667" y="29" letter-spacing="0.163333341">e</tspan>
                        <tspan x="135.894" y="29" font-family="CircularStd-MediumItalic, Circular Std" font-style="italic" font-weight="500" letter-spacing="0.163333341">Runner</tspan>
                    </text>
                    <path d="M22.6253389,22.694185 C22.7543617,22.738793 22.8833845,22.783401 23.0112271,22.8311953 C23.0139807,22.8276107 23.0171276,22.8240261 23.0202744,22.8208398 C23.0222413,22.8180518 23.0242081,22.8152638 23.0265682,22.8124758 C22.8928251,22.772249 22.759082,22.7328187 22.6253389,22.694185" id="Fill-1" fill="#221F20"></path>
                    <path d="M12.759622,25.3697877 C12.8375077,25.2463192 12.9153934,25.123249 12.9960326,25.0021702 C12.9083129,25.120461 12.828067,25.2427346 12.759622,25.3697877" id="Fill-3" fill="#221F20"></path>
                    <mask id="mask-2" fill="white">
                        <use xlink:href="#path-1"></use>
                    </mask>
                    <g id="Clip-6"></g>
                    <path d="M26.0562654,13.6332771 C25.6009144,13.7156978 25.1452515,13.7946448 24.6895885,13.8754865 C23.7901143,14.0352752 23.888046,13.9512756 22.9888836,14.1120117 C22.8042481,14.1448536 22.5488149,14.2105375 22.3641794,14.2433795 C22.1951381,14.2752741 21.9936609,14.2954845 21.8742092,14.2288532 C21.4846658,14.0119069 21.2909856,13.548646 21.2544952,13.0825429 C21.2803816,13.1153849 21.3068917,13.1472795 21.3318425,13.180753 C21.3992095,13.2710683 21.5956966,13.389173 21.7020491,13.4336991 C21.8611101,13.5003304 21.9927252,13.4605411 22.136192,13.353489 C22.2958767,13.2347527 22.0759983,13.1507531 21.9687101,13.0070696 C21.7906242,12.7689655 21.602558,12.4632827 21.5398693,12.1632842 C21.5398693,12.1632842 21.012473,10.6819228 21.9531159,9.73329581 C22.4181354,9.10235146 23.5552654,9.01835187 23.6977965,9.00098353 C24.205856,8.93908909 24.704559,8.80614236 25.2098115,8.71740594 C25.3963183,8.68487978 25.5597456,8.81656336 25.5959242,9.01393083 C25.631479,9.20719307 25.6620437,9.40171845 25.6957272,9.59529647 C25.8370108,10.4131873 25.9779825,11.2310781 26.1205136,12.0489689 C26.1941183,12.4711774 26.2708418,12.7538077 26.3450702,13.1760162 C26.3877984,13.420436 26.2808221,13.5925405 26.0562654,13.6332771 M40.6814545,11.4916032 C40.6742812,11.4625507 40.6646128,11.4344456 40.6540087,11.406972 C40.6013003,11.4088667 40.5520226,11.4240246 40.5186509,11.4729717 C40.5083588,11.4884453 40.4952596,11.4976031 40.4815367,11.5036031 C40.448477,11.570866 40.4207193,11.6400235 40.4063726,11.7145495 C40.386412,11.8193911 40.2285986,11.774865 40.2482473,11.6703392 C40.2710148,11.5509713 40.3249708,11.4464455 40.3845407,11.3441302 C40.418848,11.2197097 40.4734277,11.0997103 40.4946359,10.9727636 C40.4693732,10.8477115 40.4291402,10.7087648 40.2931586,10.7131859 C40.2716386,10.7138174 40.2529255,10.7052912 40.2385789,10.6913965 C40.1712119,10.8796061 40.1110182,11.0693947 40.116944,11.2743411 C40.1200628,11.381709 39.9560117,11.3810774 39.9528929,11.2743411 C39.9429126,10.9307638 40.1153846,10.6326599 40.1999052,10.3130825 C40.1864942,10.2256092 40.1553058,10.1450833 40.0835724,10.0816099 C40.0598692,10.0847678 40.0349184,10.0787678 40.0162054,10.0639258 C39.9154668,10.3389771 39.7355095,10.5824496 39.6840486,10.8786587 C39.6659593,10.9838161 39.507834,10.9389742 39.5259233,10.8344484 C39.591419,10.4561345 39.8864615,10.1627674 39.9185856,9.77687455 C39.9204569,9.75666412 39.9279421,9.74024314 39.9385462,9.72761163 C39.9207688,9.66161194 39.9017439,9.59592805 39.8886447,9.52740206 C39.8774169,9.52045472 39.8674366,9.51287581 39.855585,9.50592848 C39.7850991,9.46266553 39.6715733,9.50024429 39.6550434,9.58834914 C39.5854932,9.9644526 39.4304867,10.2935037 39.1978211,10.5742391 C39.200628,10.6516072 39.2037469,10.7289753 39.2065538,10.8063433 C39.2355591,10.9149744 39.2255788,11.0327633 39.2028112,11.1546574 C39.1516622,11.4312877 39.0584088,11.6990759 38.9763832,11.968443 C38.9682742,12.0246533 38.963596,12.0783372 38.9648435,12.1276001 C38.9673386,12.234968 38.8032875,12.2343365 38.8007924,12.1276001 C38.7970498,11.9627588 38.8706545,11.7293915 38.9267936,11.4957084 C38.9252342,11.3741301 38.9330313,11.2474991 38.9349026,11.1211839 C38.9299125,11.0633947 38.9202441,11.0068687 38.9009072,10.9550794 C38.7926834,10.6670808 38.5266461,10.7460278 38.3937834,10.9332901 C38.3822437,11.0779209 38.392224,11.2396044 38.3669614,11.3583407 C38.3769417,11.3747616 38.3816199,11.3949721 38.3772535,11.4183404 C38.1935537,12.3672832 37.6471325,13.0771745 36.7623168,13.4498043 C35.9174223,13.8060131 35.1090183,13.6136983 34.2179649,13.7867501 C33.9765665,13.9174863 33.4996954,14.2376953 33.2742031,14.4192734 C33.2040291,14.4757994 33.2267967,14.5064308 33.2742031,14.4192734 C33.4797348,14.0406436 33.8384017,13.7431713 34.2444751,13.5698037 C33.9341502,13.3793836 33.7223808,13.0503326 33.6933756,12.6502292 C33.6621871,12.2198102 33.5012548,11.8506541 33.2130738,11.5500239 C32.9816556,11.3087619 32.7121876,11.1038156 32.4536356,10.8903429 C32.441784,10.8805535 32.4367938,10.870764 32.4265016,10.8609746 C31.8208224,11.2522359 31.4609079,11.9027591 30.9076252,12.3448622 C30.6206917,12.5741243 30.22647,12.6151767 29.8846448,12.47623 C29.4296057,12.2918099 29.0328889,11.7467598 28.7350394,11.3734985 C28.3645209,10.9092902 28.1418355,10.3866611 27.9858934,9.81540068 C27.9319374,9.61898057 27.9322493,9.61992793 27.9858934,9.81540068 C28.2169996,10.6617124 29.2945598,12.1190739 30.3013222,12.2387575 C30.7198709,12.288652 31.3370899,11.3791827 31.6233996,11.1227628 C31.8588723,10.9121323 32.0999588,10.6913965 32.3734813,10.5316078 C32.3903231,10.5072921 32.4049816,10.4829764 32.4311799,10.4577134 C33.1163897,9.80150601 33.4264026,8.99529934 33.309446,8.04825125 C33.1759595,6.968888 32.5905528,6.1977338 31.6059341,5.78341999 C30.6297364,5.37257986 29.6968905,5.52542123 28.8495009,6.16489185 C28.436878,6.47625878 28.1446425,6.88615155 27.960007,7.37214923 C27.9232047,7.46846455 27.8811003,7.47856977 27.8087431,7.4122543 C27.7541634,7.36172822 27.6964648,7.31467582 27.6409494,7.26541289 C24.8380454,4.79089843 22.0847311,6.66099474 21.5539041,7.04057187 C20.7704508,7.60014813 20.1251622,8.28414486 19.718777,9.17371954 C19.7122274,9.18793 19.705366,9.2011931 19.6985045,9.2141404 C19.6776083,9.30224524 19.637999,9.38624484 19.5971422,9.46677077 C19.5793647,9.50182323 19.5612755,9.5368757 19.5438099,9.57224395 C19.5431862,9.57634919 19.5419386,9.57982286 19.541003,9.58298074 C19.5372604,9.59624383 19.5325821,9.60950693 19.5291514,9.62277002 C19.5222899,9.64834885 19.5123096,9.67171716 19.500458,9.69350653 C19.3934817,9.9748736 18.3698775,12.1137055 19.7041185,14.5159045 C19.9121453,14.7953768 20.1644596,15.0300073 20.4772796,15.1124279 C20.6871777,15.1310594 21.508369,15.2823219 22.2388019,14.8329556 C21.8448921,15.3265322 21.4519179,15.8207403 21.0533298,16.3108432 C20.993448,16.3844218 20.9058086,16.4400005 20.8222236,16.4876845 C20.4336158,16.7093677 20.0687112,16.963577 19.7434159,17.2727334 C18.9259672,18.0498875 18.4016897,18.983041 18.2703865,20.1233513 C18.2382624,20.4025079 18.1415783,20.6538751 17.9457149,20.8534531 C17.1248355,21.6899754 16.3011492,22.5236556 15.4755915,23.3557569 C15.4734083,23.3715463 15.4656112,23.3870199 15.4484576,23.4005988 C15.4076007,23.4328091 15.3689271,23.4669142 15.3311891,23.5019667 C15.3155949,23.5174403 15.3003125,23.5329139 15.2847183,23.5487033 C15.274738,23.5584927 15.264134,23.567019 15.2538418,23.5761769 C14.8789569,23.9570171 14.6481625,24.4521727 14.326298,24.8813285 C14.2682875,24.9586966 14.1634944,24.9116442 14.1762816,24.8172236 C14.2302376,24.4228044 14.4304673,24.0725955 14.6896431,23.7593339 C14.6693707,23.7571234 14.6487863,23.7552286 14.6278901,23.7514392 C14.1251326,23.6579659 13.6198801,23.6576502 13.1146276,23.698071 C12.0928947,23.7795443 11.121999,24.0647008 10.1707519,24.4436464 C9.44655666,24.7319608 8.8449319,25.1674324 8.38770956,25.802482 C8.14599925,26.1384804 7.9111504,26.4798472 7.67786096,26.8218455 C7.60862265,27.0135288 7.54967653,27.2134226 7.52722086,27.4164743 C7.51817621,27.4970002 7.42149209,27.5311053 7.37439756,27.4584741 C7.31763463,27.370685 7.25151516,27.3002643 7.17697482,27.2380541 C7.13705363,27.235212 7.09401361,27.2282646 7.04504777,27.21437 C6.88162042,27.1685807 6.72255944,27.0991074 6.56880049,27.0255288 C6.11812772,26.8104772 5.63439522,27.0050025 5.46161133,27.4780529 C5.37802635,27.7060518 5.37272431,27.9428928 5.40796724,28.177839 C5.44508146,28.4266799 5.5058989,28.6685735 5.45131915,28.9256249 C5.36555097,29.3307809 5.21491087,29.7094106 5.01904755,30.0690931 C4.75581722,30.5522487 4.66131629,31.0663515 4.71839111,31.6098226 C4.77078767,32.1075044 4.97382433,32.5104499 5.45662118,32.7144489 C5.83556057,32.8745534 6.24787158,32.6809754 6.35921426,32.2815036 C6.44654186,31.9672946 6.52763177,31.6492961 6.58002833,31.3278239 C6.6280585,31.0331938 6.72100002,30.7613003 6.88380361,30.5178278 C7.02758226,30.303092 7.18165309,30.0927772 7.35256567,29.9001466 C7.8338031,29.3566755 8.39644232,28.9073092 8.98808678,28.4955217 C9.40788301,28.2031021 9.83173374,27.9166824 10.2583914,27.6353153 C10.7586538,27.3056327 11.3231643,27.1411072 11.8967195,27.0046868 C12.652727,26.8250034 13.4221455,26.7365828 14.1946828,26.6765831 C14.501265,26.652899 14.8084711,26.6298464 15.1134939,26.7031093 C15.4197642,26.7766879 15.7307128,26.7984772 16.0413496,26.7428985 C16.7798915,26.6115307 17.384947,26.2831113 17.7208464,25.559641 C17.8353079,25.3133264 18.0455179,25.1848007 18.3050056,25.1349062 C18.3814173,25.1200642 18.4590764,25.1118537 18.5354881,25.0976433 C19.2771489,24.9593281 19.9346009,24.6252245 20.5527556,24.2027002 C21.2859955,23.7015447 21.9297246,23.099337 22.5154433,22.4323929 C21.6243899,22.1251312 20.7514258,21.767975 19.7933174,21.753133 C19.7356188,21.7521856 19.710668,21.7029227 19.7156582,21.6580808 C19.710668,21.6135547 19.7356188,21.5642918 19.7933174,21.563976 C20.9750469,21.5563971 22.0915926,21.9018691 23.2100095,22.2448148 C23.9894083,22.4390244 24.7815944,22.5634449 25.5815775,22.6379708 C26.0029332,22.6771285 26.4236651,22.7219704 26.8503228,22.6537602 C27.2875845,22.5839711 27.6272265,22.7914438 27.7996985,23.2070207 C27.8511594,23.3311254 27.868313,23.4719668 27.8888974,23.6068083 C27.9281948,23.8635439 27.9378632,24.1265953 27.9968093,24.3779625 C28.2397672,25.4143786 28.6583159,26.3829003 29.1386177,27.3271063 C29.3341691,27.711736 29.5181808,28.1036289 29.6872221,28.5008901 C29.8278819,28.8318359 29.8915063,29.1621501 29.8858924,29.4921485 C29.9716605,29.5467798 30.0571168,29.583727 30.180623,29.5969901 C30.242688,29.6039375 30.3003866,29.6885686 30.2386335,29.7387789 C30.1497465,29.8114102 30.0586763,29.8799361 29.9654229,29.9449885 C29.8665555,30.119935 29.7658169,30.2917236 29.6722516,30.4673018 C29.6650783,30.4843543 29.6585287,30.5014069 29.6513554,30.5184594 C29.5397008,30.7748792 29.5044579,31.0496148 29.520364,31.3278239 C29.5343988,31.5804543 29.6622713,31.7655061 29.8880756,31.8766634 C30.0823795,31.9720314 30.2882231,31.9691893 30.4946905,31.9376105 C30.8698872,31.8801371 31.2057866,31.7152958 31.5395028,31.542244 C31.6349394,31.492981 31.7391087,31.4506655 31.8439018,31.4317182 C32.2892726,31.3518238 32.7368265,31.3954026 33.1837567,31.4206656 C33.5287007,31.4402445 33.8702139,31.5087704 34.2195243,31.4566654 C34.8326888,31.3657185 35.3023865,30.9551942 35.457393,30.3533023 C35.5169629,30.1230929 35.4184075,29.9026729 35.2007122,29.84141 C34.8008766,29.7286737 34.4004172,29.6010954 33.9918488,29.5414114 C33.4413731,29.4608855 32.9913241,29.2243603 32.6382711,28.801836 C32.1408157,28.2072073 31.7986786,27.5216317 31.5862854,26.7773194 C31.3632882,25.9954284 31.2719061,25.1857481 31.1883211,24.3789099 C31.0688694,23.2262838 30.9600218,22.0720788 30.9522247,20.9112423 C30.9500415,20.5913491 30.851798,20.2992452 30.6802616,20.0320886 C30.5027995,19.7560899 30.2688863,19.5372488 29.9966113,19.3623023 C29.3413424,18.941357 28.6212017,18.7092528 27.8530307,18.6167269 C27.2055589,18.5390431 26.5792953,18.3625176 25.9558387,18.1768343 C25.9159175,18.1648344 25.8582189,18.1354661 25.8522931,18.1054662 C25.8457435,18.0729401 25.8828578,18.0211508 25.9143581,17.9930457 C26.197549,17.7388364 26.5228443,17.5509426 26.8768329,17.42368 C27.3013074,17.2708386 27.7354503,17.1457866 28.1614842,16.9979979 C29.3946746,16.5707367 30.4207739,15.8103193 31.3673427,14.927692 C31.4630911,14.8386398 31.546988,14.8310609 31.6489742,14.8822185 C31.7007469,14.9081131 31.7503365,14.9419024 31.7943122,14.9801128 C32.2509108,15.3764267 32.74899,15.7124251 33.2645347,16.023792 C33.6063598,16.2306331 34.1864646,16.2862118 34.5834933,16.2372647 C34.9692941,16.1895807 35.4417988,16.1788439 35.8216738,16.0980022 C36.8639911,15.8756874 37.7001528,15.4282159 38.521656,14.7224298 C38.6177163,14.6396934 39.6166816,13.7276977 39.7925844,13.5666459 C40.0714089,13.3108576 40.2997082,12.9148595 40.4743634,12.5207561 C40.5707356,12.1901261 40.7665989,11.8383384 40.6814545,11.4916032" id="Fill-5" fill="#073649" mask="url(#mask-2)"></path>
                </g>
            </g>
        </g>
    </g>
</svg>