<?xml version="1.0" encoding="utf-8"?>
<!-- Generator: Adobe Illustrator 20.1.0, SVG Export Plug-In . SVG Version: 6.00 Build 0)  -->
<svg version="1.1" id="Layer_1" xmlns="http://www.w3.org/2000/svg" xmlns:xlink="http://www.w3.org/1999/xlink" x="0px" y="0px"
	 viewBox="0 0 112.3 108.3" style="enable-background:new 0 0 112.3 108.3;" xml:space="preserve">
<style type="text/css">
	.st0{fill:#FFFFFF;}
</style>
<title>Artboard 1</title>
<path class="st0" d="M55,7.3C29.2,7.3,8.3,28.2,8.3,54c0,25.8,20.9,46.7,46.7,46.7c25.8,0,46.7-20.9,46.7-46.7
	C101.7,28.2,80.8,7.3,55,7.3z M78.7,43.7c-7.7,13.9-19.1,25.3-33,33L45,77.1c-3.7,2-8,2.5-12,1.4l-0.9-0.2c-1.6-0.5-2.9-1.7-3.4-3.3
	L28,68c-0.1-1.1,0.5-2.2,1.5-2.6l7.7-3.3c2-0.9,4.3-0.2,5.4,1.6l1.9,3c0.6,0.9,1.8,1.2,2.7,0.7c9.3-5.1,16.9-12.8,21.8-22.2
	c0.5-0.9,0.2-2-0.6-2.7L66,40.7c-1.8-1.2-2.5-3.6-1.5-5.5l3.4-7.2c0.5-1,1.6-1.6,2.7-1.4l6.3,1c1.3,0.5,2.4,1.6,2.9,2.9
	C81.3,34.9,80.9,39.7,78.7,43.7z"/>
</svg>
